<svg width="3664" height="1164" viewBox="0 0 3664 1164" fill="none" xmlns="http://www.w3.org/2000/svg">
<g filter="url(#filter0_ddd_0_1)">
<path fill-rule="evenodd" clip-rule="evenodd" d="M984.942 215.13C986.191 215.26 987.362 215.484 988.386 215.79C989.412 216.096 990.272 216.477 990.92 216.913C991.565 217.348 991.985 217.828 992.154 218.327C992.321 218.825 992.235 219.331 991.9 219.817C968.847 253.298 955.532 287.81 946.94 322.748C958.746 320.49 970.576 318.251 982.429 316.031C1152.2 284.251 1321.93 252.456 1491.43 220.485C1492.6 220.266 1493.86 220.138 1495.15 220.109C1496.44 220.079 1497.73 220.149 1498.95 220.313C1500.17 220.478 1501.3 220.735 1502.26 221.069C1503.23 221.403 1504.02 221.807 1504.58 222.26C1505.15 222.712 1505.47 223.203 1505.55 223.705C1505.63 224.206 1505.45 224.709 1505.02 225.184C1504.6 225.659 1503.94 226.097 1503.08 226.472C1502.22 226.848 1501.18 227.154 1500.02 227.373C1330.49 259.347 1160.73 291.147 990.963 322.926C975.552 325.814 960.18 328.734 944.848 331.684C938.178 361.515 934.629 391.614 931.094 421.609V421.617C929.9 431.758 928.707 441.886 927.395 451.988C961.711 466.342 994.675 481.056 1027.07 495.519L1027.12 495.544L1027.43 495.679L1042.36 502.341L1063.51 511.782L1063.52 511.787C1076.35 517.52 1089.15 523.239 1101.98 528.924C1259.71 533.419 1414.55 549.08 1554.54 579.574C1581.57 585.465 1630.83 598.391 1663.06 613.767C1664.1 614.259 1665.13 614.757 1666.12 615.257C1700.96 607.971 1737.01 601.407 1773.98 595.495C1974.47 563.445 2202.44 550.596 2411.39 546.238C2424.92 545.955 2438.47 545.702 2452.04 545.476C2407.26 506.101 2364.3 466.553 2327.8 426.497C2322.91 428.401 2317.87 430.399 2312.7 432.447L2312.67 432.46C2288.52 442.022 2261.59 452.693 2234.3 460.193C2212.42 466.206 2187.7 466.263 2168.04 462.176C2148.58 458.131 2134.53 450.137 2132.64 440.404C2132.33 438.774 2132.89 436.169 2133.44 433.618L2133.67 432.564C2134.33 429.452 2134.95 426.102 2134.71 423.117C2134.47 419.943 2133.28 417.987 2131.86 417.122C2131.74 417.047 2131.6 416.978 2131.44 416.916C2131.2 416.903 2130.22 416.885 2128.13 417.186C2111.76 419.564 2097.41 423.25 2081.75 427.273L2081.74 427.276C2079.35 427.891 2076.92 428.513 2074.45 429.141C2056.19 433.781 2036.09 438.511 2011.03 440.82C1986.42 443.088 1957.78 443.549 1933.39 440.401C1908.43 437.185 1887.86 430.136 1881.84 417.842C1877.71 409.405 1883.64 399.576 1893.24 390.292C1795.22 409.693 1692.06 428.235 1586.92 440.264C1583.02 440.712 1579.27 441.159 1575.94 441.557C1572.76 441.938 1569.95 442.272 1567.74 442.519C1562.98 443.049 1558.39 443.488 1553.96 443.476C1544.47 443.45 1537.97 441.32 1530.69 438.937C1530.27 438.799 1529.85 438.656 1529.42 438.519C1518.29 434.888 1510.64 429.715 1505.46 424.046C1500.25 418.352 1497.31 411.923 1496.02 405.479C1495.86 404.671 1495.72 403.864 1495.61 403.055C1475.39 409.456 1454.55 415.763 1433.18 421.53C1377.03 436.687 1315.17 448.749 1246.61 449.981C1230.12 450.279 1208.66 449.996 1190.35 447.468C1178.96 445.894 1168.29 443.355 1161.03 439.455C1115.82 447.366 1063.14 449.986 1015.19 449.986C1012.58 449.986 1010.08 449.583 1008.24 448.865C1006.39 448.148 1005.35 447.174 1005.35 446.16C1005.35 445.144 1006.39 444.171 1008.24 443.453C1010.08 442.736 1012.58 442.333 1015.19 442.333C1061.72 442.333 1111.32 439.766 1153 432.465C1152.56 431.704 1152.22 430.934 1152 430.158C1151.48 428.462 1152.3 426.702 1153.5 425.138C1154.74 423.523 1156.61 421.842 1158.84 420.204C1163.5 416.795 1169.36 413.656 1176.24 410.875C1182.61 408.344 1191.01 405.785 1199.99 405.29C1204.98 405.014 1210.35 405.377 1214.97 406.782C1219.33 408.109 1222 410.058 1223.61 412.186C1226.12 415.492 1223.87 418.668 1220.26 421.263C1216.66 423.854 1211.23 426.235 1205.56 428.283C1197.04 431.36 1187 434.037 1178.91 435.898C1183.31 437.817 1189.44 439.22 1196.94 440.256C1211.64 442.286 1230.07 442.618 1245.7 442.335C1308.88 441.2 1367.08 430.057 1421.97 415.242C1447.46 408.359 1471.8 400.823 1495.4 393.225C1496.2 384.555 1499.46 376.378 1504.11 370.375C1522.86 346.178 1570.99 327.393 1630.62 317.923C1631.43 317.796 1632.49 317.62 1633.76 317.408H1633.77C1641.32 316.153 1656.32 313.663 1670.33 312.546C1678.4 311.903 1687.85 311.559 1695.94 312.633C1700.22 313.199 1704.33 314.189 1707.44 315.77C1710.53 317.347 1712.13 319.255 1712.55 321.332C1713.82 327.541 1707.13 333.399 1697.57 338.563C1687.94 343.754 1674.65 348.639 1660.8 353.032C1646.88 357.441 1631.99 361.477 1618.97 364.921C1616.23 365.65 1613.58 366.347 1611.05 367.013C1601.36 369.556 1593.41 371.648 1588.04 373.304C1571.82 378.301 1554.95 383.812 1537.52 389.503L1537.47 389.522C1530.05 391.95 1522.52 394.409 1514.9 396.876C1514.87 399.529 1515.11 402.219 1515.64 404.885C1516.84 410.872 1519.53 416.599 1523.99 421.48C1528.48 426.383 1534.53 430.197 1542.07 432.653C1551.7 435.799 1552.6 435.819 1554.1 435.822C1555.43 435.827 1557.6 435.687 1562.31 435.161C1564.69 434.896 1567.12 434.605 1569.99 434.261C1573.1 433.888 1576.74 433.455 1581.39 432.921C1692.84 420.169 1802.43 399.928 1906.83 378.983C1917.75 370.992 1930.38 363.374 1944.6 356.206C1947.06 354.971 1952.19 353.247 1958.06 351.42C1965.74 349.051 1973.58 346.758 1981.56 344.545C2000.03 339.392 2023.4 333.294 2046.46 327.85C2069.38 322.432 2092.49 317.541 2110.25 314.908C2118.88 313.63 2127.51 312.688 2134.59 312.786C2138.23 312.834 2142.63 313.168 2146.31 314.326C2150.31 315.581 2152.03 317.344 2152.27 319.076C2152.77 322.653 2149.36 326.1 2144.32 329.212C2139.24 332.345 2132.06 335.437 2123.74 338.417C2107.13 344.377 2084.84 350.305 2062.41 355.611C2025.89 364.244 1987.42 371.569 1970.32 374.822L1970.31 374.827C1966.44 375.562 1963.67 376.09 1962.26 376.375C1948.67 379.156 1935.06 381.92 1921.42 384.666C1920.09 385.68 1918.81 386.702 1917.57 387.73C1904.75 398.338 1897.4 408.704 1901.17 416.408C1905.65 425.549 1920.26 430.649 1939.57 433.139C1959.44 435.7 1984.16 435.432 2006.5 433.373C2028.02 431.391 2045.7 427.304 2063.69 422.735C2066.01 422.143 2068.35 421.541 2070.72 420.934C2086.23 416.939 2102.62 412.724 2121.24 410.017C2126.29 409.285 2131.6 408.986 2136.76 409.546C2142.1 410.122 2145.89 411.464 2148.41 412.989C2153 415.765 2154.13 419.614 2154.39 422.888C2154.66 426.352 2153.93 430.095 2153.29 433.192L2153.09 434.09C2152.49 436.937 2152.08 438.856 2152.27 439.83C2153.65 446.996 2163.89 452.64 2177.32 455.425C2190.52 458.173 2207.26 458.254 2222.95 453.943C2248.66 446.874 2273.63 436.985 2297.43 427.562L2297.44 427.559C2305.12 424.495 2312.86 421.46 2320.69 418.454C2320.3 417.509 2320.83 416.541 2322.17 415.74C2323.53 414.94 2325.6 414.364 2327.98 414.127C2330.36 413.89 2332.88 414.008 2335.06 414.459C2337.23 414.91 2338.87 415.661 2339.7 416.563C2340.62 417.612 2341.58 418.661 2342.51 419.706L2342.9 419.926C2345.17 421.219 2347.94 423.008 2350.82 424.875L2350.84 424.88L2350.85 424.885L2351.99 425.617C2359 430.138 2366.62 434.898 2373.16 437.374C2374.63 437.932 2375.63 438.657 2375.99 439.447C2376.35 440.236 2376.07 441.049 2375.18 441.772C2374.29 442.494 2372.82 443.09 2371.03 443.475C2369.22 443.859 2367.13 444.012 2365.1 443.915C2397.92 477.893 2434.87 511.535 2473.18 545.143C2638.55 542.72 2805.31 544.134 2971.46 545.542H2971.47C3071.83 546.393 3171.96 547.24 3271.42 547.24C3274.03 547.24 3276.53 547.643 3278.39 548.362C3280.23 549.079 3281.26 550.053 3281.26 551.067C3281.26 552.082 3280.23 553.055 3278.39 553.774C3276.53 554.491 3274.03 554.894 3271.42 554.894C3171.02 554.894 3070.46 554.042 2969.91 553.188C2806.84 551.802 2643.87 550.419 2481.78 552.68C2495.92 565.014 2510.19 577.35 2524.49 589.694L2524.52 589.723C2544.67 607.116 2564.84 624.537 2584.65 642.026C2631.82 642.638 2678.94 643.511 2726 644.699L2737.41 644.977C2775.1 645.873 2815.04 646.825 2851.81 652.902L2851.85 652.909C2854.09 653.279 2856.32 653.646 2858.18 654.016C2859.99 654.379 2862.34 654.911 2864.29 655.751C2869.27 657.904 2868.19 660.448 2867.3 661.983C2866.79 662.853 2865.75 664.078 2863.23 665.052C2860.09 666.262 2855.94 666.609 2852.25 666.3C2849.23 666.05 2846.98 665.42 2845.67 664.996C2844.28 664.543 2843.01 664.043 2841.86 663.501C2839.9 662.571 2838.11 661.592 2836.48 660.572C2835.89 660.214 2835.32 659.853 2834.74 659.491C2834.26 659.182 2834.17 659.139 2834.28 659.195C2833.76 658.917 2833.32 658.612 2833.01 658.289C2802.62 654.22 2769.92 653.432 2735.85 652.61C2732.16 652.521 2728.44 652.432 2724.72 652.337C2680.99 651.242 2637.23 650.395 2593.45 649.799C2676.83 723.9 2752.59 799.161 2790.22 878.121C2808.96 917.475 2810.41 954.454 2780.94 986.665C2751.35 1019.02 2690.95 1046.15 2588.2 1065.97C2317.81 1118.13 1935.51 1132.12 1655.47 1081.16C1349.34 1025.44 1146.75 887.137 1300.74 760.417C1346.53 722.731 1408.29 691.482 1481.31 665.606C1464.71 662.524 1448.76 659.07 1434.04 655.621C1023.66 656.892 608.571 655.894 200.841 638.528C195.83 638.314 189.639 638.097 182.752 637.855C163.397 637.176 138.48 636.304 118.364 634.763C105.03 633.739 91.7352 632.296 83.4712 629.949C79.1619 628.724 74.8135 626.854 74.0985 624.19C73.3902 621.54 76.591 619.226 80.7886 617.384C91.886 612.504 106.263 609.371 120.647 606.942C127.861 605.726 135.273 604.652 142.422 603.631L144.717 603.305C151.125 602.391 157.278 601.517 163.207 600.567C366.097 568.135 587.334 543.884 805.702 532.689C834.515 531.212 863.479 530.035 892.527 529.181L892.974 527.508C896.384 514.658 899.768 501.909 902.018 489.401C904.072 477.97 905.771 466.441 907.305 454.838C840.49 427.094 769.064 401.129 686.699 381.212C598.608 397.131 508.706 411.462 416.56 421.406L416.476 421.416C413.656 421.719 384.18 424.906 354.593 426.581C339.743 427.423 324.101 427.931 311.587 427.383C305.376 427.112 299.072 426.546 293.904 425.38C288.396 424.138 283.889 422.12 282.899 419.235C280.432 412.046 290.009 405.825 303.139 400.821C316.355 395.784 334.628 391.391 353.42 387.677C382.934 381.845 415.741 377.317 435.561 374.58C440.927 373.84 445.334 373.232 448.483 372.763C491.955 366.278 531.556 361.323 571.067 360.62C609.376 359.931 647.057 363.244 687.92 372.548C743.577 362.401 798.671 351.621 853.432 340.907C877.757 336.147 902.026 331.399 926.241 326.725C934.897 289.81 948.535 253.214 972.893 217.835C973.569 216.855 975.219 216.019 977.479 215.512C979.738 215.005 982.422 214.868 984.942 215.13ZM1647.82 618.601L1648.64 618.997C1609.54 627.556 1572.08 637.058 1536.69 647.61C1504.32 647.733 1471.91 647.85 1439.48 647.952C1422.14 643.817 1406.54 639.707 1393.74 636.281C1289.28 608.335 1203.74 573.629 1120.72 537.194C1269 542.347 1413.78 557.685 1544.92 586.25C1570.94 591.919 1617.81 604.287 1647.82 618.601ZM1660.19 625.25C1629.13 631.996 1599.05 639.418 1570.14 647.483L1595.22 647.383C1621.42 647.278 1647.64 647.13 1673.89 646.947C1675.22 644.649 1675.54 642.28 1674.83 639.942C1673.46 635.178 1668.25 630.224 1660.19 625.25ZM1473.38 655.493L1511.67 655.358C1506.85 656.906 1502.08 658.478 1497.34 660.067C1489.24 658.637 1481.25 657.111 1473.38 655.493ZM1543.48 655.239C1534.75 657.882 1526.16 660.593 1517.7 663.369C1518.97 663.557 1520.25 663.741 1521.53 663.922C1570.94 670.923 1618.44 671.987 1652.89 659.817C1657.33 658.272 1661.31 656.545 1664.79 654.664C1641.66 654.818 1618.53 654.945 1595.42 655.037L1543.48 655.239ZM1318.52 763.687C1364.42 725.917 1426.84 694.732 1500.96 669.02C1505.55 669.757 1510.17 670.458 1514.8 671.114C1566.19 678.393 1623.27 680.62 1666.11 665.481C1675.98 661.993 1683.11 658.312 1687.8 654.501C1774.94 653.855 1862.14 652.842 1949.32 651.833H1949.33C2157 649.427 2364.65 647.019 2571.64 649.518C2656.38 724.591 2733.11 800.268 2770.86 879.514C2789.31 918.217 2790.23 953.676 2762.41 984.098C2734.71 1014.38 2678.15 1040.08 2579.45 1059.12C2313.19 1110.48 1937.28 1124 1663.8 1074.22C1364.2 1019.69 1170.63 885.395 1318.52 763.687ZM1947.61 644.192C2152.52 641.819 2358.08 639.436 2562.85 641.761C2544.33 625.518 2525.67 609.302 2506.87 593.11L2506.84 593.092L2506.82 593.079L2506.81 593.067C2491.33 579.724 2475.92 566.368 2460.61 552.996C2444.54 553.251 2428.5 553.544 2412.45 553.878C2204.54 558.216 1979.04 570.989 1781.44 602.575C1745.99 608.22 1711.3 614.56 1677.48 621.571C1686.34 627.127 1692.65 633.036 1694.38 639.092C1695.14 641.656 1695.02 644.249 1693.99 646.799C1778.34 646.154 1862.89 645.174 1947.55 644.195L1947.6 644.192H1947.61ZM863.44 347.522C883.791 343.54 904.058 339.575 924.24 335.662C918.107 364.403 914.711 393.294 911.338 421.921L911.332 421.954V421.974C910.453 429.418 909.58 436.848 908.663 444.249C847.718 419.403 782.19 396.009 707.832 377.357C760.308 367.704 812.149 357.561 863.44 347.522ZM921.642 489.934C923.276 480.881 924.68 471.791 925.959 462.673C955.532 475.237 984.299 488.077 1012.82 500.809L1027.53 507.374C1034.69 510.563 1041.83 513.757 1048.98 516.948L1049.01 516.966L1049.07 516.992C1057.48 520.747 1065.88 524.502 1074.3 528.25C1020.45 527.158 966.354 527.339 912.467 528.645C915.89 515.795 919.314 502.902 921.642 489.934ZM880.736 596.393C880.736 576.721 885.327 556.736 890.489 536.917C863.007 537.751 835.577 538.878 808.273 540.276C591.773 551.376 372.178 575.439 170.684 607.647C164.387 608.655 157.855 609.585 151.499 610.488L149.204 610.818C142.055 611.838 135.115 612.843 128.484 613.964C115.17 616.211 103.843 618.797 95.5263 622.456C94.5424 622.89 94.0701 623.189 93.8471 623.361C94.0767 623.456 94.4571 623.592 95.0736 623.765C99.4549 625.01 108.769 626.227 122.168 627.252C141.176 628.709 164.217 629.517 183.355 630.188H183.369C190.609 630.443 197.293 630.678 202.979 630.92C599.466 647.807 1003.09 649.179 1403.37 648.059C1396.4 646.258 1389.48 644.434 1382.59 642.587C1270.55 612.616 1180.01 575.023 1092.52 536.337C1032.07 534.763 971.135 534.84 910.421 536.365C905.147 556.428 900.411 576.398 900.411 596.393C900.411 597.409 899.375 598.381 897.531 599.1C895.685 599.817 893.182 600.22 890.573 600.22C887.965 600.22 885.462 599.817 883.616 599.1C881.772 598.381 880.736 597.409 880.736 596.393ZM665.783 376.544C632.812 369.961 602.523 367.716 571.972 368.263C535.834 368.908 498.757 373.462 455.52 379.909C451.874 380.452 447.014 381.126 441.262 381.919C421.277 384.679 390.509 388.932 362.332 394.501C344.231 398.081 328.024 402.053 316.913 406.288C305.717 410.553 301.126 414.507 302.405 418.222V418.235C302.411 418.293 302.431 418.456 303.781 418.76C305.566 419.163 308.786 419.558 313.791 419.778C323.715 420.214 337.323 419.827 351.754 419.008C380.087 417.403 408.612 414.321 411.228 414.038L411.301 414.031C497.995 404.672 582.558 391.412 665.783 376.544ZM1518.25 385.8L1516.31 386.435C1517.72 381.113 1520.07 376.306 1522.96 372.582C1539.79 350.846 1583.27 333.71 1638.06 325.011L1641.98 324.371C1649.81 323.077 1662.47 320.985 1674.29 320.044C1681.45 319.473 1686.61 319.482 1689.62 319.878C1690.88 320.046 1691.46 320.242 1691.79 320.413C1692.14 320.592 1692.75 321.008 1692.94 321.937C1693.67 325.592 1689.84 329.649 1681.6 334.086C1673.43 338.493 1661.63 342.891 1648.35 347.099C1635.13 351.29 1620.84 355.171 1607.91 358.594L1600.44 360.561L1600.43 360.564C1590.65 363.135 1581.85 365.452 1575.83 367.303C1558.66 372.587 1541.36 378.246 1523.74 384.008L1518.25 385.8ZM1192.17 422.676C1185.75 424.99 1178.15 427.092 1171.59 428.676C1171.75 428.221 1172 427.771 1172.35 427.331C1173.14 426.309 1174.45 425.094 1176.24 423.778C1180.01 421.02 1184.75 418.478 1190.32 416.224C1196.08 413.931 1200.58 412.987 1202.75 412.867L1202.97 412.857C1203.25 412.981 1204 413.372 1204.73 414.347C1205.26 415.036 1205.11 416.063 1202.95 417.622C1200.77 419.192 1197.03 420.919 1192.17 422.676ZM2131.42 416.908C2131.41 416.901 2131.38 416.892 2131.38 416.892L2131.39 416.9L2131.42 416.908ZM1953.12 369.6L1939.45 372.388C1945.88 368.437 1952.77 364.605 1960.12 360.905C1960.92 360.504 1964.14 359.331 1970.35 357.392C1977.76 355.108 1985.34 352.898 1993.03 350.765C2013.72 345.006 2034.95 339.544 2056.67 334.391C2079.38 329.023 2101.23 324.434 2117.25 322.061C2124.36 321.008 2129.42 320.534 2132.54 320.447C2132.16 321.707 2130.7 323.261 2127.67 325.133C2123.85 327.488 2118.01 330.065 2110.4 332.792C2095.21 338.24 2074.22 343.864 2052.19 349.07C2016.76 357.446 1980.13 364.428 1962.45 367.798C1958.09 368.63 1954.87 369.24 1953.12 369.6ZM3396.05 551.749C3393.44 551.749 3390.94 552.151 3389.08 552.869C3387.24 553.587 3386.21 554.561 3386.21 555.575C3386.21 556.59 3387.24 557.563 3389.08 558.281C3390.94 558.999 3393.44 559.402 3396.05 559.402H3409.16C3411.77 559.402 3414.28 558.999 3416.12 558.281C3417.96 557.563 3419 556.59 3419 555.575C3419 554.561 3417.96 553.587 3416.12 552.869C3414.28 552.151 3411.77 551.749 3409.16 551.749H3396.05Z" fill="white"/>
</g>
<defs>
<filter id="filter0_ddd_0_1" x="49" y="190" width="3395" height="948" filterUnits="userSpaceOnUse" color-interpolation-filters="sRGB">
<feFlood flood-opacity="0" result="BackgroundImageFix"/>
<feColorMatrix in="SourceAlpha" type="matrix" values="0 0 0 0 0 0 0 0 0 0 0 0 0 0 0 0 0 0 127 0" result="hardAlpha"/>
<feOffset/>
<feGaussianBlur stdDeviation="12.5"/>
<feComposite in2="hardAlpha" operator="out"/>
<feColorMatrix type="matrix" values="0 0 0 0 0.945098 0 0 0 0 0.705882 0 0 0 0 0.733333 0 0 0 1 0"/>
<feBlend mode="normal" in2="BackgroundImageFix" result="effect1_dropShadow_0_1"/>
<feColorMatrix in="SourceAlpha" type="matrix" values="0 0 0 0 0 0 0 0 0 0 0 0 0 0 0 0 0 0 127 0" result="hardAlpha"/>
<feOffset/>
<feGaussianBlur stdDeviation="12.5"/>
<feComposite in2="hardAlpha" operator="out"/>
<feColorMatrix type="matrix" values="0 0 0 0 0.945098 0 0 0 0 0.705882 0 0 0 0 0.733333 0 0 0 1 0"/>
<feBlend mode="normal" in2="effect1_dropShadow_0_1" result="effect2_dropShadow_0_1"/>
<feColorMatrix in="SourceAlpha" type="matrix" values="0 0 0 0 0 0 0 0 0 0 0 0 0 0 0 0 0 0 127 0" result="hardAlpha"/>
<feOffset/>
<feGaussianBlur stdDeviation="12.5"/>
<feComposite in2="hardAlpha" operator="out"/>
<feColorMatrix type="matrix" values="0 0 0 0 0.945098 0 0 0 0 0.705882 0 0 0 0 0.733333 0 0 0 1 0"/>
<feBlend mode="normal" in2="effect2_dropShadow_0_1" result="effect3_dropShadow_0_1"/>
<feBlend mode="normal" in="SourceGraphic" in2="effect3_dropShadow_0_1" result="shape"/>
</filter>
</defs>
</svg>
