<svg width="2000" height="1250" viewBox="0 0 3395 948" fill="none" xmlns="http://www.w3.org/2000/svg">
<g filter="url(#filter0_ddd_0_1)">
<path fill-rule="evenodd" clip-rule="evenodd" d="M935.942 25.1304C937.191 25.2601 938.362 25.4842 939.386 25.79C940.412 26.0958 941.272 26.4773 941.92 26.9125C942.565 27.3478 942.985 27.8283 943.154 28.3267C943.321 28.8251 943.235 29.3315 942.9 29.8169C919.847 63.2981 906.532 97.8099 897.94 132.748C909.746 130.49 921.576 128.251 933.429 126.031C1103.2 94.2511 1272.93 62.4562 1442.43 30.4853C1443.6 30.266 1444.86 30.138 1446.15 30.1085C1447.44 30.079 1448.73 30.1486 1449.95 30.3133C1451.17 30.4781 1452.3 30.7348 1453.26 31.0687C1454.23 31.4027 1455.02 31.8073 1455.58 32.2596C1456.15 32.7119 1456.47 33.2029 1456.55 33.7047C1456.63 34.2065 1456.45 34.7091 1456.02 35.184C1455.6 35.6588 1454.94 36.0966 1454.08 36.4722C1453.22 36.8479 1452.18 37.1541 1451.02 37.3734C1281.49 69.3469 1111.73 101.147 941.963 132.926C926.552 135.814 911.18 138.734 895.848 141.684C889.178 171.515 885.629 201.614 882.094 231.609V231.617C880.9 241.758 879.707 251.886 878.395 261.988C912.711 276.342 945.675 291.056 978.069 305.519L978.121 305.544L978.429 305.679L993.358 312.341L1014.51 321.782L1014.52 321.787C1027.35 327.52 1040.15 333.239 1052.98 338.924C1210.71 343.419 1365.55 359.08 1505.54 389.574C1532.57 395.465 1581.83 408.391 1614.06 423.767C1615.1 424.259 1616.13 424.757 1617.12 425.257C1651.96 417.971 1688.01 411.407 1724.98 405.495C1925.47 373.445 2153.44 360.596 2362.39 356.238C2375.92 355.955 2389.47 355.702 2403.04 355.476C2358.26 316.101 2315.3 276.553 2278.8 236.497C2273.91 238.401 2268.87 240.399 2263.7 242.447L2263.67 242.46C2239.52 252.022 2212.59 262.693 2185.3 270.193C2163.42 276.206 2138.7 276.263 2119.04 272.176C2099.58 268.131 2085.53 260.137 2083.64 250.404C2083.33 248.774 2083.89 246.169 2084.44 243.618L2084.67 242.564C2085.33 239.452 2085.95 236.102 2085.71 233.117C2085.47 229.943 2084.28 227.987 2082.86 227.122C2082.74 227.047 2082.6 226.978 2082.44 226.916C2082.2 226.903 2081.22 226.885 2079.13 227.186C2062.76 229.564 2048.41 233.25 2032.75 237.273L2032.74 237.276C2030.35 237.891 2027.92 238.513 2025.45 239.141C2007.19 243.781 1987.09 248.511 1962.03 250.82C1937.42 253.088 1908.78 253.549 1884.39 250.401C1859.43 247.185 1838.86 240.136 1832.84 227.842C1828.71 219.405 1834.64 209.576 1844.24 200.292C1746.22 219.693 1643.06 238.235 1537.92 250.264C1534.02 250.712 1530.27 251.159 1526.94 251.557C1523.76 251.938 1520.95 252.272 1518.74 252.519C1513.98 253.049 1509.39 253.488 1504.96 253.476C1495.47 253.45 1488.97 251.32 1481.69 248.937C1481.27 248.799 1480.85 248.656 1480.42 248.519C1469.29 244.888 1461.64 239.715 1456.46 234.046C1451.25 228.352 1448.31 221.923 1447.02 215.479C1446.86 214.671 1446.72 213.864 1446.61 213.055C1426.39 219.456 1405.55 225.763 1384.18 231.53C1328.03 246.687 1266.17 258.749 1197.61 259.981C1181.12 260.279 1159.66 259.996 1141.35 257.468C1129.96 255.894 1119.29 253.355 1112.03 249.455C1066.82 257.366 1014.14 259.986 966.191 259.986C963.582 259.986 961.079 259.583 959.235 258.865C957.39 258.148 956.353 257.174 956.353 256.16C956.353 255.144 957.39 254.171 959.235 253.453C961.079 252.736 963.582 252.333 966.191 252.333C1012.72 252.333 1062.32 249.766 1104 242.465C1103.56 241.704 1103.22 240.934 1103 240.158C1102.48 238.462 1103.3 236.702 1104.5 235.138C1105.74 233.523 1107.61 231.842 1109.84 230.204C1114.5 226.795 1120.36 223.656 1127.24 220.875C1133.61 218.344 1142.01 215.785 1150.99 215.29C1155.98 215.014 1161.35 215.377 1165.97 216.782C1170.33 218.109 1173 220.058 1174.61 222.186C1177.12 225.492 1174.87 228.668 1171.26 231.263C1167.66 233.854 1162.23 236.235 1156.56 238.283C1148.04 241.36 1138 244.037 1129.91 245.898C1134.31 247.817 1140.44 249.22 1147.94 250.256C1162.64 252.286 1181.07 252.618 1196.7 252.335C1259.88 251.2 1318.08 240.057 1372.97 225.242C1398.46 218.359 1422.8 210.823 1446.4 203.225C1447.2 194.555 1450.46 186.378 1455.11 180.375C1473.86 156.178 1521.99 137.393 1581.62 127.923C1582.43 127.796 1583.49 127.62 1584.76 127.408H1584.77C1592.32 126.153 1607.32 123.663 1621.33 122.546C1629.4 121.903 1638.85 121.559 1646.94 122.633C1651.22 123.199 1655.33 124.189 1658.44 125.77C1661.53 127.347 1663.13 129.255 1663.55 131.332C1664.82 137.541 1658.13 143.399 1648.57 148.563C1638.94 153.754 1625.65 158.639 1611.8 163.032C1597.88 167.441 1582.99 171.477 1569.97 174.921C1567.23 175.65 1564.58 176.347 1562.05 177.013C1552.36 179.556 1544.41 181.648 1539.04 183.304C1522.82 188.301 1505.95 193.812 1488.52 199.503L1488.47 199.522C1481.05 201.95 1473.52 204.409 1465.9 206.876C1465.87 209.529 1466.11 212.219 1466.64 214.885C1467.84 220.872 1470.53 226.599 1474.99 231.48C1479.48 236.383 1485.53 240.197 1493.07 242.653C1502.7 245.799 1503.6 245.819 1505.1 245.822C1506.43 245.827 1508.6 245.687 1513.31 245.161C1515.69 244.896 1518.12 244.605 1520.99 244.261C1524.1 243.888 1527.74 243.455 1532.39 242.921C1643.84 230.169 1753.43 209.928 1857.83 188.983C1868.75 180.992 1881.38 173.374 1895.6 166.206C1898.06 164.971 1903.19 163.247 1909.06 161.42C1916.74 159.051 1924.58 156.758 1932.56 154.545C1951.03 149.392 1974.4 143.294 1997.46 137.85C2020.38 132.432 2043.49 127.541 2061.25 124.908C2069.88 123.63 2078.51 122.688 2085.59 122.786C2089.23 122.834 2093.63 123.168 2097.31 124.326C2101.31 125.581 2103.03 127.344 2103.27 129.076C2103.77 132.653 2100.36 136.1 2095.32 139.212C2090.24 142.345 2083.06 145.437 2074.74 148.417C2058.13 154.377 2035.84 160.305 2013.41 165.611C1976.89 174.244 1938.42 181.569 1921.32 184.822L1921.31 184.827C1917.44 185.562 1914.67 186.09 1913.26 186.375C1899.67 189.156 1886.06 191.92 1872.42 194.666C1871.09 195.68 1869.81 196.702 1868.57 197.73C1855.75 208.338 1848.4 218.704 1852.17 226.408C1856.65 235.549 1871.26 240.649 1890.57 243.139C1910.44 245.7 1935.16 245.432 1957.5 243.373C1979.02 241.391 1996.7 237.304 2014.69 232.735C2017.01 232.143 2019.35 231.541 2021.72 230.934C2037.23 226.939 2053.62 222.724 2072.24 220.017C2077.29 219.285 2082.6 218.986 2087.76 219.546C2093.1 220.122 2096.89 221.464 2099.41 222.989C2104 225.765 2105.13 229.614 2105.39 232.888C2105.66 236.352 2104.93 240.095 2104.29 243.192L2104.09 244.09C2103.49 246.937 2103.08 248.856 2103.27 249.83C2104.65 256.996 2114.89 262.64 2128.32 265.425C2141.52 268.173 2158.26 268.254 2173.95 263.943C2199.66 256.874 2224.63 246.985 2248.43 237.562L2248.44 237.559C2256.12 234.495 2263.86 231.46 2271.69 228.454C2271.3 227.509 2271.83 226.541 2273.17 225.74C2274.53 224.94 2276.6 224.364 2278.98 224.127C2281.36 223.89 2283.88 224.008 2286.06 224.459C2288.23 224.91 2289.87 225.661 2290.7 226.563C2291.62 227.612 2292.58 228.661 2293.51 229.706L2293.9 229.926C2296.17 231.219 2298.94 233.008 2301.82 234.875L2301.84 234.88L2301.85 234.885L2302.99 235.617C2310 240.138 2317.62 244.898 2324.16 247.374C2325.63 247.932 2326.63 248.657 2326.99 249.447C2327.35 250.236 2327.07 251.049 2326.18 251.772C2325.29 252.494 2323.82 253.09 2322.03 253.475C2320.22 253.859 2318.13 254.012 2316.1 253.915C2348.92 287.893 2385.87 321.535 2424.18 355.143C2589.55 352.72 2756.31 354.134 2922.46 355.542H2922.47C3022.83 356.393 3122.96 357.24 3222.42 357.24C3225.03 357.24 3227.53 357.643 3229.39 358.362C3231.23 359.079 3232.26 360.053 3232.26 361.067C3232.26 362.082 3231.23 363.055 3229.39 363.774C3227.53 364.491 3225.03 364.894 3222.42 364.894C3122.02 364.894 3021.46 364.042 2920.91 363.188C2757.84 361.802 2594.87 360.419 2432.78 362.68C2446.92 375.014 2461.19 387.35 2475.49 399.694L2475.52 399.723C2495.67 417.116 2515.84 434.537 2535.65 452.026C2582.82 452.638 2629.94 453.511 2677 454.699L2688.41 454.977C2726.1 455.873 2766.04 456.825 2802.81 462.902L2802.85 462.909C2805.09 463.279 2807.32 463.646 2809.18 464.016C2810.99 464.379 2813.34 464.911 2815.29 465.751C2820.27 467.904 2819.19 470.448 2818.3 471.983C2817.79 472.853 2816.75 474.078 2814.23 475.052C2811.09 476.262 2806.94 476.609 2803.25 476.3C2800.23 476.05 2797.98 475.42 2796.67 474.996C2795.28 474.543 2794.01 474.043 2792.86 473.501C2790.9 472.571 2789.11 471.592 2787.48 470.572C2786.89 470.214 2786.32 469.853 2785.74 469.491C2785.26 469.182 2785.17 469.139 2785.28 469.195C2784.76 468.917 2784.32 468.612 2784.01 468.289C2753.62 464.22 2720.92 463.432 2686.85 462.61C2683.16 462.521 2679.44 462.432 2675.72 462.337C2631.99 461.242 2588.23 460.395 2544.45 459.799C2627.83 533.9 2703.59 609.161 2741.22 688.121C2759.96 727.475 2761.41 764.454 2731.94 796.665C2702.35 829.021 2641.95 856.154 2539.2 875.974C2268.81 928.127 1886.51 942.123 1606.47 891.157C1300.34 835.437 1097.75 697.137 1251.74 570.417C1297.53 532.731 1359.29 501.482 1432.31 475.606C1415.71 472.524 1399.76 469.07 1385.04 465.621C974.659 466.892 559.571 465.894 151.841 448.528C146.83 448.314 140.639 448.097 133.752 447.855C114.397 447.176 89.48 446.304 69.3641 444.763C56.0299 443.739 42.7352 442.296 34.4712 439.949C30.1619 438.724 25.8135 436.854 25.0985 434.19C24.3902 431.54 27.591 429.226 31.7886 427.384C42.886 422.504 57.263 419.371 71.6466 416.942C78.8613 415.726 86.2727 414.652 93.4218 413.631L95.7174 413.305C102.125 412.391 108.278 411.517 114.207 410.567C317.097 378.135 538.334 353.884 756.702 342.689C785.515 341.212 814.479 340.035 843.527 339.181L843.974 337.508C847.384 324.658 850.768 311.909 853.018 299.401C855.072 287.97 856.771 276.441 858.305 264.838C791.49 237.094 720.064 211.129 637.699 191.212C549.608 207.131 459.706 221.462 367.56 231.406L367.476 231.416C364.656 231.719 335.18 234.906 305.593 236.581C290.743 237.423 275.101 237.931 262.587 237.383C256.376 237.112 250.072 236.546 244.904 235.38C239.396 234.138 234.889 232.12 233.899 229.235C231.432 222.046 241.009 215.825 254.139 210.821C267.355 205.784 285.628 201.391 304.42 197.677C333.934 191.845 366.741 187.317 386.561 184.58C391.927 183.84 396.334 183.232 399.483 182.763C442.955 176.278 482.556 171.323 522.067 170.62C560.376 169.931 598.057 173.244 638.92 182.548C694.577 172.401 749.671 161.621 804.432 150.907C828.757 146.147 853.026 141.399 877.241 136.725C885.897 99.81 899.535 63.2139 923.893 27.8346C924.569 26.8547 926.219 26.0193 928.479 25.5122C930.738 25.0051 933.422 24.8678 935.942 25.1304ZM1598.82 428.601L1599.64 428.997C1560.54 437.556 1523.08 447.058 1487.69 457.61C1455.32 457.733 1422.91 457.85 1390.48 457.952C1373.14 453.817 1357.54 449.707 1344.74 446.281C1240.28 418.335 1154.74 383.629 1071.72 347.194C1220 352.347 1364.78 367.685 1495.92 396.25C1521.94 401.919 1568.81 414.287 1598.82 428.601ZM1611.19 435.25C1580.13 441.996 1550.05 449.418 1521.14 457.483L1546.22 457.383C1572.42 457.278 1598.64 457.13 1624.89 456.947C1626.22 454.649 1626.54 452.28 1625.83 449.942C1624.46 445.178 1619.25 440.224 1611.19 435.25ZM1424.38 465.493L1462.67 465.358C1457.85 466.906 1453.08 468.478 1448.34 470.067C1440.24 468.637 1432.25 467.111 1424.38 465.493ZM1494.48 465.239C1485.75 467.882 1477.16 470.593 1468.7 473.369C1469.97 473.557 1471.25 473.741 1472.53 473.922C1521.94 480.923 1569.44 481.987 1603.89 469.817C1608.33 468.272 1612.31 466.545 1615.79 464.664C1592.66 464.818 1569.53 464.945 1546.42 465.037L1494.48 465.239ZM1269.52 573.687C1315.42 535.917 1377.84 504.732 1451.96 479.02C1456.55 479.757 1461.17 480.458 1465.8 481.114C1517.19 488.393 1574.27 490.62 1617.11 475.481C1626.98 471.993 1634.11 468.312 1638.8 464.501C1725.94 463.855 1813.14 462.842 1900.32 461.833H1900.33C2108 459.427 2315.65 457.019 2522.64 459.518C2607.38 534.591 2684.11 610.268 2721.86 689.514C2740.31 728.217 2741.23 763.676 2713.41 794.098C2685.71 824.378 2629.15 850.078 2530.45 869.117C2264.19 920.48 1888.28 933.995 1614.8 884.223C1315.2 829.692 1121.63 695.395 1269.52 573.687ZM1898.61 454.192C2103.52 451.819 2309.08 449.436 2513.85 451.761C2495.33 435.518 2476.67 419.302 2457.87 403.11L2457.84 403.092L2457.82 403.079L2457.81 403.067C2442.33 389.724 2426.92 376.368 2411.61 362.996C2395.54 363.251 2379.5 363.544 2363.45 363.878C2155.54 368.216 1930.04 380.989 1732.44 412.575C1696.99 418.22 1662.3 424.56 1628.48 431.571C1637.34 437.127 1643.65 443.036 1645.38 449.092C1646.14 451.656 1646.02 454.249 1644.99 456.799C1729.34 456.154 1813.89 455.174 1898.55 454.195L1898.6 454.192H1898.61ZM814.44 157.522C834.791 153.54 855.058 149.575 875.24 145.662C869.107 174.403 865.711 203.294 862.338 231.921L862.332 231.954V231.974C861.453 239.418 860.58 246.848 859.663 254.249C798.718 229.403 733.19 206.009 658.832 187.357C711.308 177.704 763.149 167.561 814.44 157.522ZM872.642 299.934C874.276 290.881 875.68 281.791 876.959 272.673C906.532 285.237 935.299 298.077 963.824 310.809L978.535 317.374C985.691 320.563 992.833 323.757 999.982 326.948L1000.01 326.966L1000.07 326.992C1008.48 330.747 1016.88 334.502 1025.3 338.25C971.451 337.158 917.354 337.339 863.467 338.645C866.89 325.795 870.314 312.902 872.642 299.934ZM831.736 406.393C831.736 386.721 836.327 366.736 841.489 346.917C814.007 347.751 786.577 348.878 759.273 350.276C542.773 361.376 323.178 385.439 121.684 417.647C115.387 418.655 108.855 419.585 102.499 420.488L100.204 420.818C93.0546 421.838 86.1152 422.843 79.4843 423.964C66.1699 426.211 54.8428 428.797 46.5263 432.456C45.5424 432.89 45.0701 433.189 44.8471 433.361C45.0767 433.456 45.4571 433.592 46.0736 433.765C50.4549 435.01 59.7686 436.227 73.1682 437.252C92.1757 438.709 115.217 439.517 134.355 440.188H134.369C141.609 440.443 148.293 440.678 153.979 440.92C550.466 457.807 954.09 459.179 1354.37 458.059C1347.4 456.258 1340.48 454.434 1333.59 452.587C1221.55 422.616 1131.01 385.023 1043.52 346.337C983.067 344.763 922.135 344.84 861.421 346.365C856.147 366.428 851.411 386.398 851.411 406.393C851.411 407.409 850.375 408.381 848.531 409.1C846.685 409.817 844.182 410.22 841.573 410.22C838.965 410.22 836.462 409.817 834.616 409.1C832.772 408.381 831.736 407.409 831.736 406.393ZM616.783 186.544C583.812 179.961 553.523 177.716 522.972 178.263C486.834 178.908 449.757 183.462 406.52 189.909C402.874 190.452 398.014 191.126 392.262 191.919C372.277 194.679 341.509 198.932 313.332 204.501C295.231 208.081 279.024 212.053 267.913 216.288C256.717 220.553 252.126 224.507 253.405 228.222V228.235C253.411 228.293 253.431 228.456 254.781 228.76C256.566 229.163 259.786 229.558 264.791 229.778C274.715 230.214 288.323 229.827 302.754 229.008C331.087 227.403 359.612 224.321 362.228 224.038L362.301 224.031C448.995 214.672 533.558 201.412 616.783 186.544ZM1469.25 195.8L1467.31 196.435C1468.72 191.113 1471.07 186.306 1473.96 182.582C1490.79 160.846 1534.27 143.71 1589.06 135.011L1592.98 134.371C1600.81 133.077 1613.47 130.985 1625.29 130.044C1632.45 129.473 1637.61 129.482 1640.62 129.878C1641.88 130.046 1642.46 130.242 1642.79 130.413C1643.14 130.592 1643.75 131.008 1643.94 131.937C1644.67 135.592 1640.84 139.649 1632.6 144.086C1624.43 148.493 1612.63 152.891 1599.35 157.099C1586.13 161.29 1571.84 165.171 1558.91 168.594L1551.44 170.561L1551.43 170.564C1541.65 173.135 1532.85 175.452 1526.83 177.303C1509.66 182.587 1492.36 188.246 1474.74 194.008L1469.25 195.8ZM1143.17 232.676C1136.75 234.99 1129.15 237.092 1122.59 238.676C1122.75 238.221 1123 237.771 1123.35 237.331C1124.14 236.309 1125.45 235.094 1127.24 233.778C1131.01 231.02 1135.75 228.478 1141.32 226.224C1147.08 223.931 1151.58 222.987 1153.75 222.867L1153.97 222.857C1154.25 222.981 1155 223.372 1155.73 224.347C1156.26 225.036 1156.11 226.063 1153.95 227.622C1151.77 229.192 1148.03 230.919 1143.17 232.676ZM2082.42 226.908C2082.41 226.901 2082.38 226.892 2082.38 226.892L2082.39 226.9L2082.42 226.908ZM1904.12 179.6L1890.45 182.388C1896.88 178.437 1903.77 174.605 1911.12 170.905C1911.92 170.504 1915.14 169.331 1921.35 167.392C1928.76 165.108 1936.34 162.898 1944.03 160.765C1964.72 155.006 1985.95 149.544 2007.67 144.391C2030.38 139.023 2052.23 134.434 2068.25 132.061C2075.36 131.008 2080.42 130.534 2083.54 130.447C2083.16 131.707 2081.7 133.261 2078.67 135.133C2074.85 137.488 2069.01 140.065 2061.4 142.792C2046.21 148.24 2025.22 153.864 2003.19 159.07C1967.76 167.446 1931.13 174.428 1913.45 177.798C1909.09 178.63 1905.87 179.24 1904.12 179.6ZM3347.05 361.749C3344.44 361.749 3341.94 362.151 3340.08 362.869C3338.24 363.587 3337.21 364.561 3337.21 365.575C3337.21 366.59 3338.24 367.563 3340.08 368.281C3341.94 368.999 3344.44 369.402 3347.05 369.402H3360.16C3362.77 369.402 3365.28 368.999 3367.12 368.281C3368.96 367.563 3370 366.59 3370 365.575C3370 364.561 3368.96 363.587 3367.12 362.869C3365.28 362.151 3362.77 361.749 3360.16 361.749H3347.05Z" fill="white"/>
</g>
<defs>
<filter id="filter0_ddd_0_1" x="0" y="0" width="3395" height="948" filterUnits="userSpaceOnUse" color-interpolation-filters="sRGB">
<feFlood flood-opacity="0" result="BackgroundImageFix"/>
<feColorMatrix in="SourceAlpha" type="matrix" values="0 0 0 0 0 0 0 0 0 0 0 0 0 0 0 0 0 0 127 0" result="hardAlpha"/>
<feOffset/>
<feGaussianBlur stdDeviation="12.5"/>
<feComposite in2="hardAlpha" operator="out"/>
<feColorMatrix type="matrix" values="0 0 0 0 0.945098 0 0 0 0 0.705882 0 0 0 0 0.733333 0 0 0 1 0"/>
<feBlend mode="normal" in2="BackgroundImageFix" result="effect1_dropShadow_0_1"/>
<feColorMatrix in="SourceAlpha" type="matrix" values="0 0 0 0 0 0 0 0 0 0 0 0 0 0 0 0 0 0 127 0" result="hardAlpha"/>
<feOffset/>
<feGaussianBlur stdDeviation="12.5"/>
<feComposite in2="hardAlpha" operator="out"/>
<feColorMatrix type="matrix" values="0 0 0 0 0.945098 0 0 0 0 0.705882 0 0 0 0 0.733333 0 0 0 1 0"/>
<feBlend mode="normal" in2="effect1_dropShadow_0_1" result="effect2_dropShadow_0_1"/>
<feColorMatrix in="SourceAlpha" type="matrix" values="0 0 0 0 0 0 0 0 0 0 0 0 0 0 0 0 0 0 127 0" result="hardAlpha"/>
<feOffset/>
<feGaussianBlur stdDeviation="12.5"/>
<feComposite in2="hardAlpha" operator="out"/>
<feColorMatrix type="matrix" values="0 0 0 0 0.945098 0 0 0 0 0.705882 0 0 0 0 0.733333 0 0 0 1 0"/>
<feBlend mode="normal" in2="effect2_dropShadow_0_1" result="effect3_dropShadow_0_1"/>
<feBlend mode="normal" in="SourceGraphic" in2="effect3_dropShadow_0_1" result="shape"/>
</filter>
</defs>
</svg>
