<svg width="400" height="400" viewBox="0 0 2235 1059" fill="none" xmlns="http://www.w3.org/2000/svg">
<mask id="mask0_0_1" style="mask-type:luminance" maskUnits="userSpaceOnUse" x="-4" y="-2" width="2243" height="1063">
<path d="M-4 -2H2239V1061H-4V-2Z" fill="white"/>
<path fill-rule="evenodd" clip-rule="evenodd" d="M612.773 7.06225C613.601 7.21318 614.377 7.47405 615.056 7.82996C615.736 8.18586 616.306 8.62981 616.735 9.13641C617.163 9.64301 617.441 10.2023 617.553 10.7824C617.664 11.3624 617.607 11.9518 617.385 12.5168C602.106 51.4856 593.282 91.6539 587.587 132.318C595.412 129.69 603.252 127.084 611.108 124.5C723.624 87.5117 836.117 50.5057 948.454 13.2948C949.224 13.0395 950.061 12.8905 950.916 12.8562C951.771 12.8218 952.628 12.9029 953.437 13.0946C954.246 13.2864 954.992 13.5852 955.632 13.9738C956.272 14.3625 956.794 14.8335 957.167 15.3599C957.541 15.8863 957.759 16.4578 957.809 17.0418C957.86 17.6258 957.741 18.2109 957.46 18.7635C957.179 19.3162 956.742 19.8257 956.173 20.263C955.604 20.7002 954.915 21.0566 954.144 21.3118C841.79 58.5257 729.279 95.5377 616.764 132.526C606.55 135.887 596.362 139.285 586.201 142.719C581.78 177.439 579.428 212.471 577.085 247.383V247.392C576.294 259.195 575.503 270.983 574.634 282.742C597.377 299.447 619.224 316.573 640.693 333.406L640.728 333.436L640.932 333.593L650.826 341.346L664.845 352.335L664.849 352.341C673.352 359.013 681.837 365.67 690.339 372.286C794.878 377.518 897.499 395.746 990.275 431.238C1008.19 438.094 1040.84 453.139 1062.2 471.035C1062.89 471.608 1063.57 472.187 1064.23 472.769C1087.32 464.289 1111.21 456.649 1135.71 449.769C1268.59 412.466 1419.68 397.51 1558.16 392.438C1567.13 392.109 1576.11 391.815 1585.1 391.551C1555.42 345.723 1526.95 299.693 1502.76 253.073C1499.52 255.288 1496.18 257.613 1492.75 259.997L1492.73 260.012C1476.73 271.141 1458.88 283.561 1440.79 292.291C1426.29 299.289 1409.91 299.355 1396.88 294.598C1383.98 289.892 1374.67 280.586 1373.42 269.258C1373.21 267.361 1373.58 264.329 1373.95 261.36L1374.1 260.133C1374.54 256.511 1374.95 252.612 1374.79 249.138C1374.63 245.444 1373.84 243.167 1372.9 242.16C1372.82 242.073 1372.73 241.993 1372.62 241.92C1372.46 241.905 1371.81 241.884 1370.43 242.235C1359.58 245.002 1350.07 249.293 1339.69 253.975L1339.68 253.978C1338.1 254.694 1336.49 255.418 1334.85 256.149C1322.75 261.55 1309.43 267.055 1292.82 269.742C1276.51 272.382 1257.53 272.919 1241.36 269.255C1224.82 265.511 1211.19 257.307 1207.2 242.998C1204.46 233.178 1208.39 221.738 1214.75 210.933C1149.79 233.514 1081.42 255.095 1011.74 269.095C1009.15 269.617 1006.67 270.137 1004.46 270.6C1002.35 271.043 1000.49 271.432 999.026 271.72C995.87 272.337 992.831 272.848 989.893 272.833C983.603 272.803 979.295 270.324 974.474 267.551L974.47 267.548C974.192 267.387 973.914 267.224 973.627 267.064C966.254 262.838 961.182 256.817 957.747 250.219C954.296 243.592 952.349 236.109 951.492 228.609C951.387 227.669 951.297 226.729 951.223 225.788C937.821 233.238 924.011 240.578 909.849 247.291C872.635 264.932 831.635 278.971 786.193 280.405C775.269 280.752 761.042 280.423 748.909 277.48C741.359 275.648 734.286 272.693 729.474 268.153C699.516 277.361 664.597 280.411 632.821 280.411C631.092 280.411 629.433 279.941 628.211 279.106C626.988 278.271 626.301 277.138 626.301 275.957C626.301 274.775 626.988 273.643 628.211 272.807C629.433 271.972 631.092 271.503 632.821 271.503C663.658 271.503 696.534 268.516 724.158 260.018C723.865 259.132 723.641 258.236 723.489 257.333C723.145 255.359 723.689 253.31 724.489 251.49C725.31 249.61 726.549 247.654 728.023 245.747C731.113 241.78 734.996 238.126 739.559 234.889C743.776 231.943 749.348 228.965 755.295 228.389C758.603 228.068 762.163 228.49 765.223 230.126C768.118 231.67 769.888 233.939 770.953 236.415C772.613 240.263 771.122 243.96 768.731 246.98C766.345 249.996 762.746 252.767 758.986 255.151C753.343 258.732 746.688 261.847 741.328 264.014C744.241 266.247 748.305 267.88 753.274 269.086C763.02 271.449 775.234 271.835 785.593 271.506C827.467 270.184 866.037 257.215 902.416 239.972C919.312 231.961 935.439 223.19 951.084 214.347C951.61 204.255 953.774 194.738 956.856 187.751C969.28 159.588 1001.18 137.725 1040.7 126.703C1041.24 126.555 1041.94 126.35 1042.78 126.103H1042.79C1047.79 124.643 1057.73 121.745 1067.02 120.444C1072.37 119.696 1078.63 119.295 1083.99 120.545C1086.83 121.204 1089.55 122.356 1091.61 124.197C1093.66 126.032 1094.72 128.253 1095 130.67C1095.84 137.897 1091.41 144.715 1085.07 150.725C1078.69 156.767 1069.88 162.453 1060.7 167.566C1051.48 172.697 1041.61 177.395 1032.98 181.403C1031.16 182.252 1029.41 183.063 1027.73 183.838C1021.31 186.798 1016.04 189.233 1012.48 191.16C1001.73 196.977 990.549 203.391 979 210.015L978.965 210.036C974.044 212.863 969.054 215.725 964.003 218.596C963.985 221.684 964.142 224.814 964.494 227.917C965.289 234.886 967.076 241.552 970.032 247.232C973.005 252.939 977.017 257.378 982.012 260.237C988.397 263.899 988.989 263.922 989.984 263.925C990.867 263.931 992.305 263.768 995.426 263.156C997.004 262.847 998.617 262.509 1000.52 262.108C1002.58 261.675 1004.99 261.17 1008.07 260.549C1081.94 245.706 1154.57 222.148 1223.76 197.77C1231 188.471 1239.37 179.603 1248.79 171.26C1250.42 169.823 1253.82 167.816 1257.71 165.69C1262.8 162.932 1268 160.264 1273.29 157.688C1285.53 151.69 1301.02 144.593 1316.3 138.257C1331.49 131.95 1346.81 126.258 1358.58 123.194C1364.3 121.706 1370.02 120.61 1374.71 120.723C1377.12 120.78 1380.04 121.168 1382.48 122.517C1385.13 123.977 1386.27 126.029 1386.43 128.045C1386.76 132.208 1384.5 136.22 1381.16 139.842C1377.79 143.488 1373.03 147.087 1367.52 150.555C1356.51 157.492 1341.74 164.392 1326.87 170.568C1302.67 180.616 1277.17 189.141 1265.84 192.927L1265.83 192.933C1263.27 193.788 1261.43 194.403 1260.5 194.735C1251.49 197.972 1242.47 201.188 1233.43 204.385C1232.55 205.566 1231.7 206.754 1230.88 207.951C1222.38 220.298 1217.51 232.362 1220.01 241.329C1222.98 251.968 1232.66 257.904 1245.46 260.802C1258.63 263.783 1275.01 263.471 1289.82 261.075C1304.08 258.768 1315.8 254.011 1327.72 248.693C1329.26 248.004 1330.81 247.303 1332.38 246.597C1342.66 241.947 1353.52 237.041 1365.86 233.891C1369.21 233.039 1372.73 232.691 1376.15 233.342C1379.69 234.013 1382.2 235.575 1383.87 237.35C1386.91 240.581 1387.66 245.061 1387.83 248.871C1388.01 252.903 1387.53 257.259 1387.1 260.864L1386.97 261.909C1386.57 265.223 1386.3 267.456 1386.43 268.59C1387.34 276.931 1394.13 283.499 1403.03 286.741C1411.78 289.939 1422.87 290.034 1433.27 285.016C1450.31 276.788 1466.86 265.279 1482.63 254.311L1482.64 254.308C1487.73 250.742 1492.86 247.209 1498.05 243.71C1497.79 242.611 1498.14 241.484 1499.03 240.552C1499.93 239.62 1501.3 238.95 1502.88 238.674C1504.46 238.398 1506.13 238.536 1507.57 239.061C1509.01 239.586 1510.1 240.46 1510.65 241.51C1511.26 242.731 1511.89 243.951 1512.51 245.168L1512.77 245.424C1514.27 246.929 1516.11 249.011 1518.02 251.184L1518.03 251.19V251.193L1518.04 251.196L1518.79 252.048C1523.44 257.31 1528.49 262.85 1532.82 265.731C1533.8 266.381 1534.46 267.225 1534.7 268.144C1534.94 269.062 1534.75 270.009 1534.16 270.85C1533.57 271.691 1532.6 272.384 1531.41 272.832C1530.21 273.279 1528.83 273.458 1527.48 273.344C1549.23 312.892 1573.72 352.047 1599.11 391.165C1708.71 388.344 1819.23 389.989 1929.35 391.628H1929.36C1995.87 392.619 2062.23 393.605 2128.15 393.605C2129.88 393.605 2131.54 394.075 2132.77 394.91C2133.99 395.745 2134.67 396.878 2134.67 398.059C2134.67 399.24 2133.99 400.373 2132.77 401.209C2131.54 402.044 2129.88 402.513 2128.15 402.513C2061.61 402.513 1994.96 401.521 1928.32 400.527C1820.25 398.914 1712.24 397.305 1604.81 399.936C1614.18 414.292 1623.64 428.649 1633.12 443.017L1633.14 443.05C1646.49 463.294 1659.86 483.571 1672.99 503.926C1704.25 504.638 1735.48 505.654 1766.67 507.037L1774.23 507.361C1799.21 508.403 1825.68 509.511 1850.05 516.584L1850.08 516.593H1850.08C1851.56 517.023 1853.04 517.451 1854.27 517.881C1855.47 518.303 1857.03 518.923 1858.32 519.9C1861.62 522.406 1860.91 525.367 1860.32 527.154C1859.98 528.167 1859.29 529.592 1857.62 530.726C1855.54 532.134 1852.79 532.538 1850.34 532.178C1848.34 531.887 1846.85 531.154 1845.98 530.661C1845.06 530.134 1844.22 529.552 1843.46 528.921C1842.16 527.838 1840.97 526.7 1839.89 525.512C1839.5 525.095 1839.12 524.675 1838.74 524.253C1838.42 523.894 1838.36 523.844 1838.43 523.909C1838.09 523.585 1837.8 523.23 1837.59 522.855C1817.45 518.119 1795.78 517.201 1773.2 516.245C1770.75 516.141 1768.29 516.037 1765.82 515.927C1736.84 514.652 1707.84 513.667 1678.82 512.973C1734.08 599.219 1784.29 686.815 1809.23 778.717C1821.65 824.521 1822.61 867.561 1803.08 905.051C1783.47 942.71 1743.44 974.291 1675.34 997.36C1496.14 1058.06 1242.77 1074.35 1057.17 1015.03C854.278 950.178 720.011 789.211 822.068 641.721C852.418 597.859 893.353 561.488 941.742 531.371C930.745 527.784 920.173 523.763 910.414 519.749C638.433 521.228 363.331 520.067 93.1058 499.855C89.7848 499.605 85.6813 499.353 81.1171 499.071C68.2894 498.281 51.7755 497.266 38.4436 495.472C29.6063 494.281 20.7951 492.601 15.3181 489.869C12.4621 488.444 9.58014 486.267 9.10633 483.167C8.63687 480.082 10.7582 477.389 13.5402 475.245C20.8951 469.565 30.4235 465.919 39.9563 463.092C44.7379 461.676 49.6499 460.426 54.388 459.238L55.9094 458.858C60.1563 457.795 64.2337 456.777 68.1633 455.672C202.63 417.924 349.256 389.698 493.981 376.669C513.077 374.949 532.273 373.581 551.525 372.586L551.821 370.638C554.081 355.682 556.324 340.844 557.815 326.286C559.176 312.981 560.302 299.562 561.319 286.058C517.037 253.767 469.699 223.546 415.111 200.365C356.728 218.893 297.145 235.572 236.075 247.146L236.019 247.158C234.15 247.511 214.615 251.22 195.006 253.17C185.164 254.15 174.797 254.741 166.503 254.103C162.387 253.788 158.209 253.129 154.784 251.772C151.133 250.326 148.146 247.977 147.49 244.619C145.855 236.252 152.202 229.012 160.904 223.187C169.663 217.325 181.774 212.212 194.228 207.889C213.789 201.101 235.532 195.831 248.668 192.645C252.224 191.784 255.145 191.077 257.232 190.531C286.043 182.983 312.289 177.216 338.475 176.397C363.865 175.595 388.838 179.452 415.92 190.281C452.807 178.47 489.321 165.924 525.614 153.453C541.736 147.913 557.82 142.387 573.869 136.947C579.606 93.9818 588.644 51.3876 604.788 10.2097C605.236 9.06912 606.329 8.09684 607.827 7.50661C609.324 6.91639 611.103 6.75656 612.773 7.06225ZM1052.1 476.662L1052.64 477.122C1026.73 487.084 1001.9 498.145 978.447 510.425C956.991 510.568 935.513 510.705 914.018 510.823C902.529 506.01 892.192 501.227 883.707 497.239C814.474 464.713 757.786 424.319 702.763 381.912C801.033 387.91 896.991 405.761 983.903 439.008C1001.15 445.606 1032.21 460.001 1052.1 476.662ZM1060.3 484.4C1039.71 492.252 1019.78 500.891 1000.62 510.277L1017.24 510.161C1034.6 510.039 1051.98 509.867 1069.38 509.653C1070.26 506.98 1070.47 504.222 1070 501.5C1069.09 495.956 1065.64 490.19 1060.3 484.4ZM936.491 519.6L961.864 519.443C958.673 521.245 955.509 523.075 952.37 524.924C947.001 523.259 941.705 521.483 936.491 519.6ZM982.951 519.304C977.165 522.381 971.468 525.536 965.863 528.767C966.706 528.986 967.554 529.2 968.402 529.411C1001.15 537.559 1032.63 538.797 1055.46 524.633C1058.4 522.835 1061.04 520.824 1063.35 518.635C1048.02 518.814 1032.69 518.962 1017.37 519.069L982.951 519.304ZM833.857 645.527C864.276 601.567 905.641 565.271 954.77 535.344C957.808 536.202 960.869 537.018 963.938 537.781C998 546.253 1035.83 548.845 1064.22 531.225C1070.76 527.166 1075.49 522.882 1078.6 518.445C1136.35 517.694 1194.14 516.515 1251.92 515.34H1251.93C1389.56 512.54 1527.18 509.737 1664.37 512.646C1720.53 600.023 1771.38 688.104 1796.4 780.338C1808.63 825.385 1809.24 866.655 1790.8 902.064C1772.44 937.306 1734.96 967.218 1669.54 989.378C1493.08 1049.16 1243.94 1064.89 1062.69 1006.96C864.128 943.491 735.838 787.183 833.857 645.527ZM1250.79 506.447C1386.59 503.685 1522.83 500.912 1658.54 503.617C1646.27 484.712 1633.9 465.838 1621.44 446.993L1621.42 446.972L1621.41 446.957L1621.4 446.942C1611.14 431.413 1600.93 415.867 1590.78 400.304C1580.13 400.601 1569.5 400.942 1558.86 401.331C1421.07 406.379 1271.62 421.246 1140.66 458.009C1117.16 464.579 1094.17 471.959 1071.76 480.118C1077.63 486.585 1081.81 493.462 1082.96 500.511C1083.46 503.495 1083.38 506.513 1082.7 509.481C1138.6 508.73 1194.64 507.59 1250.75 506.45L1250.78 506.447H1250.79ZM532.247 161.153C545.735 156.518 559.167 151.903 572.543 147.349C568.478 180.8 566.227 214.427 563.992 247.746L563.988 247.784V247.808C563.405 256.472 562.827 265.119 562.219 273.733C521.827 244.815 478.398 217.587 429.117 195.878C463.896 184.643 498.254 172.837 532.247 161.153ZM570.821 326.906C571.904 316.369 572.834 305.789 573.682 295.177C593.282 309.8 612.347 324.745 631.252 339.565L641.002 347.204C645.745 350.916 650.478 354.634 655.216 358.348L655.238 358.369L655.277 358.399C660.846 362.769 666.414 367.14 671.995 371.502C636.307 370.231 600.454 370.442 564.74 371.962C567.009 357.006 569.278 341.999 570.821 326.906ZM543.71 450.814C543.71 427.918 546.753 404.657 550.174 381.589C531.96 382.56 513.781 383.872 495.685 385.499C352.198 398.418 206.66 426.425 73.1188 463.912C68.9458 465.085 64.6162 466.168 60.4041 467.22L58.8827 467.603C54.1446 468.79 49.5455 469.96 45.1508 471.264C36.3266 473.88 28.8195 476.89 23.3077 481.148C22.6556 481.653 22.3426 482.001 22.1948 482.202C22.347 482.312 22.5991 482.47 23.0077 482.672C25.9114 484.121 32.0841 485.537 40.9648 486.731C53.5621 488.426 68.8327 489.367 81.517 490.148H81.5257C86.3246 490.445 90.7541 490.718 94.5229 491C357.297 510.654 624.801 512.252 890.088 510.948C885.471 508.852 880.881 506.729 876.317 504.579C802.063 469.696 742.054 425.941 684.071 380.915C644.006 379.083 603.623 379.172 563.384 380.947C559.889 404.298 556.75 427.541 556.75 450.814C556.75 451.996 556.063 453.128 554.841 453.964C553.618 454.799 551.959 455.268 550.23 455.268C548.501 455.268 546.842 454.799 545.619 453.964C544.397 453.128 543.71 451.996 543.71 450.814ZM401.249 194.931C379.397 187.27 359.323 184.657 339.075 185.293C315.124 186.044 290.551 191.344 261.896 198.848C259.479 199.48 256.258 200.264 252.446 201.187C239.201 204.4 218.809 209.35 200.135 215.832C188.138 219.998 177.397 224.621 170.033 229.55C162.613 234.515 159.57 239.117 160.418 243.44V243.455C160.422 243.523 160.435 243.713 161.33 244.067C162.513 244.536 164.647 244.996 167.964 245.251C174.541 245.759 183.56 245.308 193.124 244.355C211.902 242.487 230.807 238.9 232.541 238.571L232.589 238.562C290.046 227.67 346.091 212.236 401.249 194.931ZM22.0775 482.401C22.0786 482.407 22.0786 482.413 22.0775 482.419V482.401ZM966.228 205.704L964.942 206.443C965.872 200.249 967.432 194.655 969.345 190.32C980.504 165.022 1009.32 145.077 1045.63 134.952L1048.23 134.207C1053.42 132.701 1061.81 130.266 1069.64 129.171C1074.39 128.506 1077.81 128.517 1079.8 128.978C1080.64 129.174 1081.02 129.402 1081.24 129.601C1081.47 129.809 1081.88 130.293 1082 131.374C1082.49 135.629 1079.95 140.35 1074.49 145.514C1069.07 150.644 1061.25 155.763 1052.45 160.66C1043.69 165.538 1034.22 170.055 1025.65 174.039L1020.7 176.329L1020.69 176.332C1014.21 179.325 1008.38 182.021 1004.39 184.176C993.01 190.326 981.542 196.912 969.862 203.619L966.228 205.704ZM750.114 248.625C745.862 251.318 740.82 253.764 736.473 255.608C736.58 255.078 736.75 254.555 736.982 254.043C737.503 252.853 738.373 251.439 739.555 249.907C742.058 246.697 745.199 243.738 748.888 241.115C752.709 238.446 755.686 237.347 757.129 237.208L757.273 237.196C757.46 237.341 757.955 237.796 758.442 238.93C758.79 239.732 758.694 240.928 757.26 242.742C755.817 244.569 753.335 246.579 750.114 248.625ZM1372.61 241.911C1372.6 241.903 1372.59 241.897 1372.58 241.893L1372.58 241.896L1372.59 241.902L1372.61 241.911ZM1254.44 186.849L1245.38 190.094C1249.64 185.496 1254.21 181.036 1259.08 176.73C1259.61 176.263 1261.74 174.897 1265.86 172.641C1270.77 169.982 1275.79 167.41 1280.89 164.927C1294.6 158.224 1308.67 151.867 1323.07 145.87C1338.12 139.623 1352.6 134.281 1363.22 131.519C1367.93 130.293 1371.28 129.741 1373.35 129.64C1373.1 131.107 1372.13 132.915 1370.12 135.094C1367.59 137.835 1363.72 140.834 1358.68 144.008C1348.61 150.35 1334.7 156.895 1320.1 162.955C1296.62 172.703 1272.34 180.83 1260.62 184.752C1257.73 185.72 1255.6 186.43 1254.44 186.849ZM2210.75 398.852C2209.02 398.852 2207.36 399.321 2206.13 400.157C2204.91 400.992 2204.23 402.125 2204.23 403.306C2204.23 404.487 2204.91 405.62 2206.13 406.455C2207.36 407.291 2209.02 407.76 2210.75 407.76H2219.44C2221.17 407.76 2222.83 407.291 2224.05 406.455C2225.27 405.62 2225.96 404.487 2225.96 403.306C2225.96 402.125 2225.27 400.992 2224.05 400.157C2222.83 399.321 2221.17 398.852 2219.44 398.852H2210.75Z" fill="#CC99AC"/>
</mask>
<g mask="url(#mask0_0_1)">
<path d="M587.588 132.318L578.933 131.754L577.451 142.339L591.422 137.648L587.588 132.318ZM586.201 142.719L582.345 137.396L577.959 138.877L577.538 142.206L586.201 142.719ZM577.086 247.383L568.405 247.113L568.392 247.25V247.383H577.086ZM577.086 247.383L585.758 247.808L585.779 247.597V247.386L577.086 247.383ZM577.086 247.392L568.414 246.968L568.409 247.045L568.401 247.119L577.086 247.392ZM574.634 282.742L565.953 282.442L565.766 284.948L568.27 286.786L574.634 282.742ZM640.694 333.406L647.405 329.632L647.327 329.567L647.249 329.505L640.694 333.406ZM640.694 333.406L633.982 337.183L634.252 337.403L634.547 337.608L640.694 333.406ZM640.694 333.406L647.253 329.511L647.058 329.353L646.845 329.208L640.694 333.406ZM640.729 333.436L634.169 337.332L634.173 337.338L640.729 333.436ZM690.34 372.286L683.806 376.205L686.154 378.032L689.705 378.21L690.34 372.286ZM1064.23 472.769L1057.37 476.418L1061.89 480.373L1068.35 477.998L1064.23 472.769ZM1585.1 391.551L1585.47 397.483L1598.2 397.112L1593.05 389.148L1585.1 391.551ZM1502.76 253.073L1510.95 251.089L1506.35 242.214L1496.61 248.877L1502.76 253.073ZM1492.75 259.997L1498.9 264.195L1498.93 264.175L1498.95 264.157L1492.75 259.997ZM1492.75 259.997L1486.6 255.798L1486.56 255.828L1486.52 255.855L1492.75 259.997ZM1492.73 260.012L1498.61 264.388L1498.79 264.276L1498.96 264.154L1492.73 260.012ZM1492.73 260.012L1486.86 255.635L1486.69 255.739L1486.53 255.852L1492.73 260.012ZM1374.1 260.133L1365.44 259.647V259.65L1374.1 260.133ZM1372.62 241.92L1378.59 237.6L1376.54 236.275L1373.74 236.029L1372.62 241.92ZM1339.69 253.975L1334.9 249.019L1334.86 249.037L1334.82 249.052L1339.69 253.975ZM1339.68 253.978L1344.47 258.934L1344.51 258.916L1344.55 258.898L1339.68 253.978ZM1214.75 210.933L1222.82 213.148L1231.45 198.465L1210.81 205.641L1214.75 210.933ZM974.475 267.551L968.793 272.043L968.833 272.067L968.876 272.091L974.475 267.551ZM974.47 267.548L980.156 263.052L980.113 263.029L980.074 263.005L974.47 267.548ZM951.223 225.788L959.904 225.47L958.987 213.816L945.737 221.18L951.223 225.788ZM729.475 268.154L736.517 264.671L732.366 260.751L725.906 262.738L729.475 268.154ZM724.159 260.018L727.727 265.434L734.204 263.441L732.639 258.708L724.159 260.018ZM741.329 264.014L736.899 258.904L727.819 262.58L734.839 267.963L741.329 264.014ZM951.084 214.347L956.626 218.92L959.635 217.222L959.774 214.555L951.084 214.347ZM1042.78 126.103L1046.19 131.567L1046.2 131.564L1042.78 126.103ZM1042.79 126.103L1039.38 120.64H1039.37L1042.79 126.103ZM1083.99 120.545L1086.8 114.921L1083.99 120.542V120.545ZM979 210.015L984.481 214.626L984.538 214.597L984.594 214.564L979 210.015ZM979 210.015L973.514 205.41L973.462 205.439L973.406 205.469L979 210.015ZM964.003 218.596L958.443 214.033L955.322 215.805L955.309 218.576L964.003 218.596ZM1223.76 197.77L1227.74 203.049L1230.17 202.194L1231.44 200.546L1223.76 197.77ZM1265.84 192.927L1269.64 198.272L1269.66 198.263L1265.84 192.927ZM1265.83 192.933L1262.03 187.588L1262 187.597L1265.83 192.933ZM1233.43 204.385L1229.43 199.109L1226.94 199.991L1225.67 201.704L1233.43 204.382V204.385ZM1332.38 246.597L1328.11 241.421L1327.84 241.525L1327.58 241.644L1332.38 246.597ZM1332.38 246.597L1336.64 251.772L1336.91 251.668L1337.17 251.549L1332.38 246.597ZM1386.97 261.909L1378.31 261.419L1378.28 261.666V261.909H1386.97ZM1386.97 261.909L1395.64 262.402L1395.67 262.159V261.912L1386.97 261.909ZM1482.63 254.311L1488.83 258.471L1488.9 258.426L1488.96 258.382L1482.63 254.311ZM1482.63 254.311L1476.33 250.213L1476.3 250.24L1482.63 254.311ZM1482.64 254.308L1476.43 250.145L1476.39 250.178L1476.34 250.21L1482.64 254.308ZM1498.05 243.71L1504.14 247.954L1507.39 245.777L1506.63 242.71L1498.05 243.71ZM1512.51 245.168L1504.31 247.128L1504.7 247.897L1505.37 248.562L1512.51 245.168ZM1512.77 245.424L1505.59 248.773L1505.59 248.776L1512.77 245.424ZM1518.02 251.184L1510.58 254.248L1510.6 254.266L1510.61 254.284L1518.02 251.184ZM1518.03 251.19L1525.51 248.161L1525.48 248.126L1525.44 248.09L1518.03 251.19ZM1518.03 251.193L1510.56 254.222L1510.59 254.263L1510.63 254.305L1518.03 251.193ZM1518.04 251.196L1525.48 248.129L1525.46 248.105L1525.44 248.084L1518.04 251.196ZM1527.48 273.344L1528.54 267.45L1514.29 266.247L1519.34 275.434L1527.48 273.344ZM1599.11 391.165L1591.16 393.573L1593.55 397.252L1599.44 397.1L1599.11 391.165ZM1929.35 391.628L1929.68 385.695L1929.61 385.692H1929.54L1929.35 391.628ZM1929.36 391.628L1929.02 397.563H1929.1L1929.17 397.566L1929.36 391.628ZM1604.81 399.936L1604.5 394L1591.63 394.315L1596.87 402.353L1604.81 399.936ZM1633.12 443.017L1625.19 445.458L1625.2 445.47L1633.12 443.017ZM1633.14 443.05L1641.07 440.612L1641.06 440.6L1633.14 443.05ZM1673 503.926L1665.04 506.322L1667.24 509.737L1672.7 509.861L1673 503.926ZM1850.05 516.584L1846.65 522.05L1846.66 522.053L1850.05 516.584ZM1850.08 516.593L1853.97 511.281L1853.73 511.197L1853.47 511.126L1850.08 516.593ZM1850.08 516.593L1846.19 521.905L1846.44 521.988L1846.68 522.059L1850.08 516.593ZM1838.43 523.909L1831.45 527.442L1845.44 520.39L1838.43 523.909ZM1837.6 522.855L1845.72 520.741L1844.27 518.146L1840.43 517.24L1837.6 522.855ZM1678.82 512.973L1679.12 507.038L1665.31 506.705L1670.85 515.354L1678.82 512.973ZM941.743 531.371L947.598 535.759L957.152 529.815L945.49 526.011L941.743 531.371ZM910.415 519.749L914.901 514.663L912.797 513.799L910.345 513.813L910.415 519.749ZM551.526 372.586L552.182 378.507L559.429 378.132L560.176 373.195L551.526 372.586ZM561.319 286.058L570 286.361L570.191 283.84L567.666 281.996L561.319 286.058ZM415.111 200.365L419.702 195.323L415.711 193.631L411.451 194.982L415.111 200.365ZM236.076 247.146L233.754 241.424H233.746L236.076 247.146ZM236.019 247.158L238.01 252.939L238.184 252.912L238.349 252.88L236.019 247.158ZM236.019 247.158L234.028 241.377L233.854 241.403L233.689 241.436L236.019 247.158ZM248.669 192.645L246.56 186.884L246.156 186.953L245.765 187.051L248.669 192.645ZM248.669 192.645L250.777 198.405L251.103 198.352L251.416 198.281L248.669 192.645ZM248.669 192.645L251.416 198.281L251.499 198.263L251.577 198.242L248.669 192.645ZM415.92 190.281L411.53 195.406L415.472 196.98L419.61 195.659L415.92 190.281ZM525.614 153.453L521.728 148.138L521.706 148.147L525.614 153.453ZM525.614 153.453L529.504 158.762L529.526 158.757L525.618 153.45L525.614 153.453ZM573.869 136.947L577.733 142.268L582.085 140.792L582.528 137.488L573.869 136.947ZM1052.65 477.122L1056.91 482.298L1065.86 478.862L1059.42 473.399L1052.65 477.122ZM1052.1 476.662L1045.36 480.415H1045.36L1052.1 476.662ZM978.448 510.425L978.531 516.364L981.434 516.346L983.734 515.141L978.448 510.425ZM914.018 510.823L909.476 515.886L911.597 516.774L914.088 516.762L914.018 510.823ZM702.763 381.912L703.537 375.998L681.746 374.667L696.256 385.853L702.763 381.912ZM1000.62 510.277L995.544 505.455L973.24 516.406L1000.7 516.216L1000.62 510.277ZM1060.3 484.4L1067.66 481.235L1063.26 476.463L1056.06 479.218L1060.3 484.4ZM1069.38 509.653L1069.53 515.592L1076.33 515.506L1077.85 510.981L1069.38 509.653ZM961.864 519.443L967.402 524.019L986.303 513.347L961.782 513.505L961.864 519.443ZM936.492 519.601L936.418 513.662L932.44 524.853L936.492 519.601ZM952.371 524.924L948.785 530.334L953.853 531.902L958.061 529.417L952.371 524.924ZM965.864 528.767L960.256 524.23L948.967 530.741L962.782 534.319L965.864 528.767ZM982.951 519.304L982.864 513.365L979.93 513.386L977.609 514.618L982.951 519.304ZM1063.35 518.636L1070.44 522.065L1080.36 512.498L1063.2 512.697L1063.35 518.636ZM954.77 535.344L958.096 529.856L953.053 528.431L948.985 530.911L954.77 535.344ZM1078.6 518.445L1078.43 512.51L1073.07 512.578L1070.75 515.883L1078.6 518.445ZM1251.92 515.34V509.401H1251.79L1251.66 509.404L1251.92 515.34ZM1251.93 515.34V521.278H1252.06L1252.19 521.275L1251.93 515.34ZM1664.37 512.647L1672.33 510.259L1670.12 506.827L1664.64 506.711L1664.37 512.647ZM1658.54 503.617L1658.29 509.553L1672.07 509.829L1666.49 501.215L1658.54 503.617ZM1250.79 506.447L1250.53 500.511L1250.46 500.514H1250.39L1250.79 506.447ZM1621.44 446.993L1629.36 444.552L1629.34 444.516L1621.44 446.993ZM1621.42 446.972L1613.47 449.374L1613.5 449.413L1613.52 449.448L1621.42 446.972ZM1621.4 446.942L1629.35 444.54L1629.33 444.502L1621.4 446.942ZM1590.78 400.304L1598.72 397.89L1596.32 394.205L1590.42 394.368L1590.78 400.304ZM1071.76 480.118L1067.66 474.88L1059.49 477.864L1064.37 483.245L1071.76 480.118ZM1082.7 509.481L1074.11 508.555L1072.5 515.559L1082.87 515.42L1082.7 509.481ZM1250.75 506.45L1250.5 500.511H1250.49L1250.75 506.45ZM1250.79 506.447L1251.03 512.385L1251.11 512.382L1251.18 512.379L1250.79 506.447ZM572.543 147.349L581.207 147.841L582.484 137.33L568.666 142.034L572.543 147.349ZM532.247 161.153L536.138 166.465L536.155 166.459L532.247 161.153ZM563.993 247.746L572.674 248.075V248.046L572.678 248.019L563.993 247.746ZM563.993 247.746L555.312 247.419L555.299 247.582V247.749L563.993 247.746ZM563.993 247.746L572.678 248.019L572.687 247.885V247.749L563.993 247.746ZM563.988 247.784L572.674 248.069V248.057L563.988 247.784ZM563.988 247.793L555.303 247.508V247.526L563.988 247.793ZM562.219 273.733L555.929 277.833L569.922 287.852L570.9 274.021L562.219 273.733ZM429.117 195.878L425.401 190.513L411.26 195.083L424.405 200.873L429.117 195.878ZM532.247 161.153L528.361 155.841L528.344 155.847L532.247 161.153ZM573.682 295.177L580.094 291.168L566.123 280.746L565.001 294.853L573.682 295.177ZM655.217 358.348L661.781 354.458L661.772 354.45L655.217 358.348ZM655.239 358.369L648.675 362.259L648.679 362.265L655.239 358.369ZM671.996 371.502L671.544 377.432L692.057 378.162L678.542 367.595L671.996 371.502ZM564.74 371.962L556.094 371.351L555.038 378.325L565.284 377.889L564.74 371.962ZM550.174 381.589L558.824 382.188L559.876 375.116L549.5 375.671L550.174 381.589ZM22.1952 482.203L14.3926 479.584L11.7409 483.271L15.8575 486.264L22.1952 482.203ZM81.5174 490.148L80.7349 496.063L80.7697 496.066L81.5174 490.148ZM81.5174 490.148L82.2781 484.234H82.2651L81.5174 490.148ZM81.5261 490.148L80.7697 496.066L81.1436 496.087H81.5261V490.148ZM81.5261 490.148L82.3085 484.234L81.9173 484.21H81.5261V490.148ZM890.089 510.948L890.149 516.887L918.635 516.747L894.892 505.998L890.089 510.948ZM684.072 380.915L690.601 376.992L688.231 375.154L684.654 374.991L684.072 380.915ZM563.384 380.947L562.823 375.021L555.486 375.344L554.738 380.342L563.384 380.947ZM401.249 194.931L404.875 200.329L421.132 195.231L405.218 189.649L401.249 194.931ZM252.446 201.187L249.534 195.59L249.221 195.668L248.916 195.76L252.446 201.187ZM252.446 201.187L255.359 206.785L255.672 206.707L255.976 206.615L252.446 201.187ZM160.418 243.44L169.09 243.016L169.068 242.835L169.034 242.653L160.418 243.44ZM160.418 243.455L169.103 243.17L169.099 243.099L169.09 243.03L160.418 243.455ZM232.542 238.571L230.551 232.792L230.386 232.819L230.216 232.849L232.542 238.571ZM232.542 238.571L234.537 244.352L234.706 244.325L234.872 244.292L232.542 238.571ZM22.0127 482.042L14.6403 485.193L29.9979 479.696L22.0127 482.042ZM22.0866 482.401L30.7108 483.132L13.6579 480.941L22.0866 482.401ZM964.942 206.443L956.296 205.837L954.105 220.416L970.537 210.989L964.942 206.443ZM1020.7 176.329L1015.83 171.409L1015.79 171.429L1020.7 176.329ZM1020.69 176.332L1025.56 181.255L1025.6 181.234L1020.69 176.332ZM969.863 203.619L964.268 199.073L964.203 199.109L964.138 199.148L969.863 203.619ZM969.863 203.619L975.457 208.162L975.522 208.127L975.588 208.088L969.863 203.619ZM736.473 255.608L727.845 254.89L725.654 267.188L741.059 260.653L736.473 255.608ZM757.273 237.196L763.728 233.22L760.916 231.088L756.726 231.269L757.273 237.196ZM1372.58 241.893L1380.28 244.64L1380.32 244.595L1380.35 244.548L1372.58 241.893ZM1372.61 241.911L1368.47 247.131L1378.32 237.43L1372.61 241.911ZM1372.58 241.896L1367.12 246.519L1367.38 246.665L1367.66 246.793L1372.58 241.896ZM1372.59 241.902L1367.67 246.798L1368.05 246.977L1368.45 247.125L1372.59 241.902ZM1245.38 190.094L1238.04 186.911L1220.63 205.641L1249.41 195.356L1245.38 190.094ZM1373.36 129.64L1381.99 130.344L1383.23 123.202L1372.73 123.716L1373.36 129.64ZM625.784 14.0519C626.827 11.3898 626.28 8.55355 624.263 6.16697C622.245 3.78039 618.922 2.03894 615.025 1.32563L610.526 12.7959C609.97 12.6943 609.495 12.4458 609.206 12.105C608.918 11.7642 608.839 11.3591 608.988 10.9787L625.784 14.0519ZM596.242 132.882C601.906 92.417 610.67 52.5991 625.784 14.0519L608.988 10.9787C593.543 50.3721 584.654 90.8908 578.933 131.754L596.242 132.882ZM607.34 119.146C599.481 121.73 591.617 124.349 583.754 126.988L591.422 137.648C599.25 135.02 607.071 132.416 614.882 129.851L607.34 119.146ZM944.659 7.95008C832.336 45.1551 719.851 82.1582 607.34 119.146L614.882 129.851C727.393 92.8624 839.899 55.8534 952.249 18.6395L944.659 7.95008ZM964.99 12.7662C964.118 11.5381 962.901 10.4392 961.407 9.53246C959.914 8.62571 958.173 7.92881 956.285 7.48158C954.397 7.03434 952.399 6.84552 950.404 6.92591C948.409 7.0063 946.457 7.35431 944.659 7.95008L952.249 18.6395C951.729 18.8111 951.131 18.8346 950.585 18.7049C950.04 18.5751 949.592 18.3027 949.341 17.9476L964.99 12.7662ZM957.935 26.6535C959.733 26.0583 961.342 25.2269 962.67 24.2068C963.998 23.1866 965.019 21.9978 965.674 20.7082C966.329 19.4186 966.606 18.0534 966.489 16.6907C966.371 15.328 965.862 13.9945 964.99 12.7662L949.341 17.9476C949.217 17.7722 949.144 17.5817 949.127 17.387C949.111 17.1924 949.15 16.9974 949.244 16.8132C949.338 16.629 949.483 16.4592 949.673 16.3136C949.863 16.1679 950.093 16.0491 950.35 15.9642L957.935 26.6535ZM620.537 137.877C733.048 100.888 845.568 63.8734 957.935 26.6535L950.35 15.9642C838.008 53.1781 725.506 90.1871 612.995 127.175L620.537 137.877ZM590.052 148.043C600.188 144.618 610.349 141.229 620.537 137.877L612.995 127.175C602.753 130.546 592.536 133.951 582.345 137.396L590.052 148.043ZM585.771 247.657C588.118 212.723 590.461 177.81 594.86 143.233L577.538 142.206C573.104 177.065 570.744 212.221 568.405 247.113L585.771 247.657ZM585.758 247.811V247.808L568.414 246.962V246.968L585.758 247.811ZM583.319 283.041C584.188 271.265 584.98 259.462 585.771 247.663L568.401 247.119C567.624 258.895 566.808 270.669 565.953 282.442L583.319 283.041ZM647.249 329.505C625.793 312.684 603.858 295.483 581.002 278.697L568.27 286.786C590.9 303.408 612.652 320.463 634.139 337.308L647.249 329.505ZM647.405 329.632L633.982 337.18V337.183L647.405 329.632ZM647.288 329.537L647.253 329.511L634.134 337.305L634.169 337.332L647.288 329.537ZM647.488 329.692L647.284 329.534L634.173 337.338L634.378 337.495L647.488 329.692ZM657.377 337.441C654.078 334.86 650.782 332.277 647.488 329.692L634.378 337.495L644.276 345.251L657.377 337.441ZM671.4 348.437L657.377 337.441L644.276 345.251C648.957 348.915 653.622 352.576 658.286 356.237L671.4 348.437ZM671.409 348.443L671.4 348.437L658.286 356.237L658.294 356.243L671.409 348.443ZM696.873 368.369C688.384 361.763 679.912 355.115 671.409 348.443L658.294 356.243C666.797 362.912 675.291 369.575 683.806 376.205L696.873 368.369ZM994.523 426.057C900.456 390.069 796.556 371.648 690.974 366.365L689.705 378.21C793.196 383.388 894.544 401.42 986.025 436.419L994.523 426.057ZM1068.95 467.282C1046.6 448.564 1012.89 433.085 994.523 426.057L986.025 436.419C1003.49 443.103 1035.09 457.712 1055.47 474.785L1068.95 467.282ZM1071.09 469.12C1070.39 468.501 1069.67 467.889 1068.95 467.282L1055.47 474.785C1056.11 475.329 1056.75 475.872 1057.37 476.418L1071.09 469.12ZM1132.4 444.279C1107.65 451.227 1083.48 458.953 1060.11 467.54L1068.35 477.998C1091.31 469.592 1114.9 462.003 1139.01 455.262L1132.4 444.279ZM1557.7 386.509C1418.76 391.595 1266.56 406.614 1132.4 444.279L1139.01 455.262C1270.61 418.319 1420.61 403.422 1558.63 398.368L1557.7 386.509ZM1584.72 385.618C1575.71 385.882 1566.7 386.179 1557.7 386.509L1558.63 398.368C1567.57 398.041 1576.52 397.747 1585.47 397.483L1584.72 385.618ZM1494.56 255.056C1518.86 301.887 1547.44 348.077 1577.15 393.953L1593.05 389.148C1563.4 343.368 1535.03 297.499 1510.95 251.089L1494.56 255.056ZM1498.95 264.157C1502.39 261.77 1505.7 259.462 1508.91 257.268L1496.61 248.877C1493.34 251.113 1489.97 253.456 1486.55 255.837L1498.95 264.157ZM1498.96 264.154L1498.98 264.139L1486.52 255.855L1486.5 255.867L1498.96 264.154ZM1445.81 297.14C1464.66 288.045 1483.08 275.206 1498.93 264.172L1486.53 255.852C1470.4 267.076 1453.1 279.077 1435.78 287.439L1445.81 297.14ZM1392.78 299.836C1408.66 305.629 1428.57 305.459 1445.81 297.14L1435.78 287.439C1424.01 293.119 1411.16 293.078 1400.98 289.36L1392.78 299.836ZM1364.75 269.706C1366.22 283.024 1377.22 294.155 1392.78 299.836L1400.98 289.36C1390.75 285.631 1383.12 278.151 1382.09 268.813L1364.75 269.706ZM1365.29 260.864C1364.95 263.602 1364.48 267.212 1364.75 269.706L1382.09 268.813C1381.95 267.506 1382.22 265.06 1382.61 261.859L1365.29 260.864ZM1365.44 259.65L1365.29 260.864L1382.61 261.859L1382.77 260.62L1365.44 259.65ZM1366.1 249.316C1366.24 252.416 1365.87 256.009 1365.44 259.647L1382.77 260.62C1383.2 257.01 1383.65 252.808 1383.48 248.96L1366.1 249.316ZM1365.58 245.364C1365.34 245.109 1365.3 244.981 1365.36 245.1C1365.4 245.201 1365.5 245.424 1365.61 245.795C1365.83 246.549 1366.03 247.701 1366.1 249.316L1383.48 248.96C1383.39 246.882 1383.12 245.047 1382.67 243.485C1382.25 242.042 1381.55 240.373 1380.21 238.954L1365.58 245.364ZM1366.66 246.237C1366.25 245.975 1365.89 245.682 1365.58 245.364L1380.21 238.954C1379.76 238.457 1379.21 238.004 1378.59 237.6L1366.66 246.237ZM1373.47 247.799C1373.95 247.674 1373.14 247.954 1371.51 247.808L1373.74 236.029C1371.78 235.857 1369.66 236.091 1367.39 236.67L1373.47 247.799ZM1344.48 258.931C1355.01 254.18 1363.7 250.29 1373.47 247.799L1367.39 236.67C1355.46 239.717 1345.13 244.405 1334.9 249.019L1344.48 258.931ZM1344.55 258.898H1344.55L1334.82 249.052L1334.82 249.055L1344.55 258.898ZM1339.61 261.119C1341.26 260.38 1342.89 259.649 1344.47 258.934L1334.89 249.022C1333.3 249.738 1331.71 250.457 1330.09 251.178L1339.61 261.119ZM1294.83 275.52C1313 272.581 1327.39 266.574 1339.61 261.119L1330.09 251.178C1318.12 256.523 1305.87 261.529 1290.82 263.964L1294.83 275.52ZM1238.62 274.894C1256.79 279.009 1277.52 278.323 1294.83 275.52L1290.82 263.964C1275.52 266.44 1258.26 266.829 1244.09 263.619L1238.62 274.894ZM1198.66 244.111C1203.34 260.873 1219.6 270.585 1238.62 274.894L1244.09 263.619C1230.04 260.436 1219.05 253.741 1215.74 241.887L1198.66 244.111ZM1206.68 208.721C1200.13 219.87 1195.45 232.605 1198.66 244.111L1215.74 241.887C1213.47 233.751 1216.67 223.611 1222.82 213.148L1206.68 208.721ZM1014.2 274.793C1084.66 260.635 1153.59 238.859 1218.69 216.227L1210.81 205.641C1145.99 228.172 1078.19 249.554 1009.29 263.4L1014.2 274.793ZM1007.01 276.277C1009.22 275.814 1011.65 275.304 1014.2 274.793L1009.29 263.4C1006.64 263.931 1004.11 264.46 1001.91 264.923L1007.01 276.277ZM1001.42 277.427C1002.98 277.121 1004.92 276.714 1007.01 276.277L1001.91 264.923C999.769 265.371 997.996 265.742 996.627 266.01L1001.42 277.427ZM989.832 278.772C994.136 278.792 998.235 278.053 1001.42 277.427L996.627 266.01C993.51 266.621 991.528 266.903 989.954 266.895L989.832 278.772ZM968.876 272.091C973.284 274.629 979.926 278.724 989.832 278.772L989.954 266.895C987.281 266.883 985.303 266.016 980.078 263.008L968.876 272.091ZM968.793 272.043L980.161 263.055L980.156 263.052L968.793 272.043ZM968.041 271.613L968.872 272.091L980.074 263.005L979.217 262.512L968.041 271.613ZM949.554 252.208C953.301 259.4 959.078 266.476 968.041 271.613L979.217 262.512C973.432 259.198 969.063 254.234 965.938 248.227L949.554 252.208ZM942.825 229.069C943.725 236.923 945.777 244.955 949.554 252.208L965.938 248.227C962.816 242.232 960.978 235.293 960.161 228.146L942.825 229.069ZM942.543 226.106C942.621 227.094 942.716 228.083 942.825 229.069L960.161 228.146C960.061 227.258 959.974 226.364 959.904 225.47L942.543 226.106ZM914.805 252.17C929.219 245.338 943.221 237.894 956.709 230.393L945.737 221.18C932.423 228.579 918.8 235.818 904.894 242.41L914.805 252.17ZM786.598 286.337C834.413 284.826 877.03 270.075 914.805 252.17L904.894 242.41C868.237 259.789 828.854 273.112 785.793 274.472L786.598 286.337ZM745.997 283.077C759.721 286.406 775.287 286.694 786.598 286.337L785.793 274.472C775.248 274.808 762.359 274.442 751.818 271.883L745.997 283.077ZM722.433 271.633C728.584 277.438 737.369 280.981 745.997 283.077L751.818 271.883C745.354 270.315 739.99 267.946 736.517 264.671L722.433 271.633ZM632.822 286.349C665.271 286.349 701.546 283.249 733.044 273.566L725.906 262.738C697.486 271.473 663.928 274.472 632.822 274.472V286.349ZM617.607 275.957C617.607 278.713 619.21 281.356 622.064 283.305C624.917 285.254 628.787 286.349 632.822 286.349V274.472C633.398 274.472 633.951 274.629 634.358 274.907C634.766 275.185 634.995 275.563 634.995 275.957H617.607ZM632.822 265.564C628.787 265.564 624.917 266.659 622.064 268.608C619.21 270.557 617.607 273.2 617.607 275.957H634.995C634.995 276.35 634.766 276.728 634.358 277.007C633.951 277.285 633.398 277.441 632.822 277.441V265.564ZM720.59 254.605C694.5 262.628 662.985 265.564 632.822 265.564V277.441C664.332 277.441 698.568 274.404 727.727 265.434L720.59 254.605ZM714.852 258.028C715.048 259.16 715.326 260.261 715.678 261.33L732.639 258.708C732.413 258.026 732.241 257.336 732.122 256.642L714.852 258.028ZM716.16 249.786C715.195 251.986 714.317 254.922 714.852 258.028L732.122 256.642C731.979 255.798 732.187 254.631 732.818 253.191L716.16 249.786ZM720.338 242.977C718.629 245.15 717.23 247.43 716.16 249.786L732.818 253.191C733.562 251.575 734.531 250.011 735.713 248.521L720.338 242.977ZM733.344 230.738C728.193 234.383 723.815 238.502 720.338 242.977L735.713 248.521C738.412 245.058 741.8 241.867 745.78 239.04L733.344 230.738ZM754.074 222.51C745.128 223.377 737.825 227.605 733.344 230.738L745.78 239.04C749.727 236.281 753.57 234.553 756.517 234.268L754.074 222.51ZM770.584 225.446C765.359 222.655 759.321 222.002 754.074 222.51L756.517 234.268C757.891 234.135 758.969 234.322 759.868 234.803L770.584 225.446ZM779.295 234.74C777.93 231.569 775.404 228.024 770.584 225.446L759.868 234.803C760.833 235.319 761.846 236.305 762.616 238.09L779.295 234.74ZM776.378 249.806C779.399 245.988 781.829 240.625 779.295 234.74L762.616 238.09C763.394 239.901 762.846 241.932 761.081 244.156L776.378 249.806ZM764.902 259.504C769.019 256.891 773.361 253.613 776.378 249.806L761.081 244.156C759.325 246.377 756.473 248.642 753.07 250.801L764.902 259.504ZM745.763 269.124C751.47 266.814 758.673 263.456 764.902 259.504L753.07 250.801C748.014 254.008 741.903 256.879 736.899 258.904L745.763 269.124ZM756.182 263.489C752.079 262.494 749.453 261.315 747.823 260.065L734.839 267.963C739.029 271.179 744.533 273.267 750.362 274.683L756.182 263.489ZM785.189 265.576C775.209 265.891 764.337 265.469 756.182 263.489L750.362 274.683C761.703 277.432 775.256 277.78 785.993 277.438L785.189 265.576ZM897.461 235.094C861.642 252.072 824.685 264.326 785.189 265.576L785.993 277.438C830.245 276.04 870.436 262.36 907.372 244.851L897.461 235.094ZM945.542 209.772C929.967 218.573 914.057 227.225 897.461 235.094L907.372 244.851C924.568 236.7 940.912 227.804 956.626 218.92L945.542 209.772ZM948.533 186.035C945.19 193.619 942.938 203.661 942.395 214.136L959.774 214.555C960.278 204.849 962.364 195.858 965.181 189.465L948.533 186.035ZM1037.42 121.204C995.757 132.823 961.799 155.959 948.533 186.035L965.181 189.465C976.761 163.216 1006.61 142.627 1043.99 132.202L1037.42 121.204ZM1039.37 120.64C1038.5 120.895 1037.87 121.079 1037.42 121.204L1043.99 132.202C1044.6 132.03 1045.38 131.804 1046.19 131.567L1039.37 120.64ZM1039.37 120.64L1039.36 120.646L1046.2 131.564L1046.21 131.561L1039.37 120.64ZM1065.28 114.627C1054.99 116.067 1044.27 119.212 1039.38 120.64L1046.21 131.564C1051.31 130.073 1060.47 127.425 1068.77 126.264L1065.28 114.627ZM1086.8 114.921C1079.17 113.146 1071.03 113.825 1065.28 114.627L1068.77 126.264C1073.71 125.572 1078.08 125.441 1081.2 126.166L1086.8 114.921ZM1098.52 120.595C1095.24 117.653 1090.96 115.886 1086.8 114.921L1081.2 126.166C1082.71 126.516 1083.87 127.057 1084.7 127.799L1098.52 120.595ZM1103.67 130.201C1103.29 126.896 1101.79 123.52 1098.52 120.595L1084.7 127.799C1085.53 128.547 1086.16 129.61 1086.33 131.139L1103.67 130.201ZM1092.12 154.199C1099.06 147.628 1104.73 139.412 1103.67 130.201L1086.33 131.139C1086.94 136.383 1083.77 141.802 1078.02 147.251L1092.12 154.199ZM1066.19 172.169C1075.63 166.913 1085.1 160.844 1092.12 154.199L1078.02 147.251C1072.28 152.684 1064.13 157.996 1055.2 162.964L1066.19 172.169ZM1037.87 186.314C1046.54 182.288 1056.66 177.472 1066.19 172.169L1055.2 162.964C1046.29 167.923 1036.69 172.501 1028.09 176.495L1037.87 186.314ZM1032.6 188.755L1037.87 186.314L1028.09 176.495L1022.86 178.915L1032.6 188.755ZM1017.87 195.816C1021.12 194.064 1026.06 191.778 1032.6 188.755L1022.86 178.915C1016.57 181.825 1010.97 184.405 1007.09 186.504L1017.87 195.816ZM984.594 214.564C996.162 207.925 1007.24 201.568 1017.87 195.816L1007.09 186.504C996.209 192.384 984.934 198.857 973.41 205.469L984.594 214.564ZM984.481 214.626L973.519 205.407L973.514 205.41L984.481 214.626ZM984.555 214.585L984.59 214.567L973.406 205.469L973.375 205.49L984.555 214.585ZM969.563 223.16C974.636 220.28 979.639 217.406 984.56 214.585L973.375 205.49C968.45 208.317 963.477 211.17 958.443 214.033L969.563 223.16ZM973.162 227.454C972.831 224.514 972.676 221.566 972.697 218.617L955.309 218.576C955.287 221.846 955.46 225.116 955.827 228.377L973.162 227.454ZM978.222 245.243C975.592 240.192 973.918 234.072 973.162 227.454L955.827 228.377C956.666 235.702 958.556 242.912 961.843 249.221L978.222 245.243ZM987.598 255.688C984.195 253.738 980.887 250.356 978.222 245.243L961.843 249.221C965.125 255.522 969.845 261.018 976.422 264.789L987.598 255.688ZM990.045 257.987C989.911 257.987 990.737 257.975 991.697 258.171C992.48 258.328 992.875 258.524 992.675 258.438C992.155 258.2 991.65 257.947 991.163 257.678C989.959 257.028 988.77 256.365 987.598 255.688L976.422 264.789C979.569 266.589 981.734 267.762 983.364 268.468C984.234 268.845 985.364 269.276 986.737 269.555C988.289 269.87 989.563 269.861 989.924 269.864L990.045 257.987ZM993.032 257.449C992.091 257.64 991.14 257.806 990.18 257.945C989.646 258.019 989.689 257.987 990.045 257.987L989.924 269.864C992.188 269.876 994.71 269.475 997.826 268.866L993.032 257.449ZM997.957 256.434C996.04 256.838 994.514 257.158 993.032 257.449L997.826 268.866C999.5 268.537 1001.2 268.18 1003.08 267.785L997.957 256.434ZM1005.61 254.851C1002.48 255.484 1000.03 255.997 997.957 256.434L1003.08 267.785C1005.14 267.352 1007.5 266.853 1010.52 266.247L1005.61 254.851ZM1219.77 192.49C1150.69 216.833 1078.67 240.174 1005.61 254.851L1010.52 266.247C1085.23 251.235 1158.45 227.46 1227.74 203.049L1219.77 192.49ZM1241.93 167.614C1232.2 176.229 1223.55 185.387 1216.07 194.991L1231.44 200.546C1238.45 191.553 1246.55 182.977 1255.65 174.906L1241.93 167.614ZM1252.27 161.055C1248.53 163.104 1244.3 165.532 1241.93 167.614L1255.65 174.906C1256.55 174.114 1259.11 172.531 1263.14 170.322L1252.27 161.055ZM1268.22 152.865C1262.8 155.502 1257.48 158.233 1252.27 161.055L1263.14 170.322C1268.12 167.631 1273.19 165.027 1278.36 162.513L1268.22 152.865ZM1311.79 133.179C1296.92 139.373 1282.38 145.94 1268.22 152.865L1278.36 162.513C1290.43 156.592 1305.74 149.584 1320.81 143.331L1311.79 133.179ZM1355.49 117.644C1342.94 120.91 1327.08 126.837 1311.79 133.179L1320.81 143.331C1335.92 137.066 1350.67 131.608 1361.67 128.746L1355.49 117.644ZM1375.01 114.788C1368.47 114.633 1361.39 116.109 1355.48 117.644L1361.67 128.746C1367.22 127.303 1371.56 126.59 1374.41 126.659L1375.01 114.788ZM1387.94 117.893C1383.46 115.426 1378.42 114.868 1375.01 114.788L1374.41 126.659C1375.83 126.688 1376.61 126.911 1377.02 127.137L1387.94 117.893ZM1395.12 127.725C1394.85 124.417 1392.92 120.631 1387.94 117.893L1377.02 127.137C1377.23 127.246 1377.39 127.388 1377.49 127.549C1377.65 127.809 1377.74 128.087 1377.75 128.369L1395.12 127.725ZM1388.51 143.008C1392.37 138.818 1395.58 133.574 1395.12 127.725L1377.75 128.369C1377.95 130.842 1376.62 133.625 1373.8 136.677L1388.51 143.008ZM1373.42 154.92C1379.23 151.259 1384.59 147.26 1388.51 143.008L1373.8 136.677C1370.99 139.721 1366.82 142.918 1361.63 146.191L1373.42 154.92ZM1331.39 175.643C1346.44 169.392 1361.78 162.251 1373.42 154.92L1361.63 146.191C1351.25 152.732 1337.05 159.392 1322.36 165.491L1331.39 175.643ZM1269.66 198.263C1280.99 194.477 1306.81 185.845 1331.39 175.643L1322.36 165.491C1298.53 175.382 1273.35 183.805 1262.02 187.594L1269.66 198.263ZM1269.62 198.275L1269.64 198.272L1262.04 187.582L1262.03 187.588L1269.62 198.275ZM1264.54 199.994C1265.33 199.712 1267.01 199.148 1269.65 198.266L1262 187.597C1259.52 188.428 1257.53 189.094 1256.46 189.48L1264.54 199.994ZM1237.42 209.659C1246.54 206.437 1255.58 203.207 1264.54 199.994L1256.46 189.48C1247.52 192.686 1238.51 195.902 1229.43 199.109L1237.42 209.659ZM1238.74 210.478C1239.53 209.338 1240.35 208.198 1241.19 207.064L1225.67 201.704C1224.76 202.933 1223.87 204.175 1223.01 205.425L1238.74 210.478ZM1228.55 240.219C1226.6 233.208 1230.38 222.626 1238.74 210.478L1223.01 205.425C1214.37 217.973 1208.42 231.516 1211.47 242.443L1228.55 240.219ZM1248.19 255.166C1237.9 252.832 1230.84 248.414 1228.55 240.219L1211.47 242.443C1215.12 255.519 1227.42 262.972 1242.72 266.437L1248.19 255.166ZM1287.81 255.297C1274.01 257.529 1259.36 257.693 1248.19 255.166L1242.72 266.437C1257.89 269.873 1276.01 269.412 1291.82 266.853L1287.81 255.297ZM1322.96 243.722C1311.16 248.987 1300.51 253.242 1287.81 255.297L1291.82 266.853C1307.65 264.29 1320.44 259.035 1332.47 253.663L1322.96 243.722ZM1327.58 241.644L1322.96 243.722L1332.47 253.663C1334.04 252.966 1335.61 252.256 1337.17 251.549L1327.58 241.644ZM1362.82 228.327C1349.4 231.753 1337.74 237.05 1327.58 241.644L1337.17 251.549C1347.58 246.846 1357.64 242.33 1368.91 239.452L1362.82 228.327ZM1378.48 227.62C1372.74 226.527 1367.25 227.198 1362.82 228.327L1368.91 239.452C1371.16 238.879 1372.73 238.856 1373.83 239.064L1378.48 227.62ZM1391.19 234.143C1388.63 231.418 1384.5 228.763 1378.48 227.62L1373.83 239.064C1374.88 239.262 1375.78 239.729 1376.55 240.557L1391.19 234.143ZM1396.52 248.693C1396.35 244.797 1395.62 238.856 1391.19 234.143L1376.55 240.557C1378.2 242.309 1378.98 245.329 1379.14 249.049L1396.52 248.693ZM1395.76 261.354C1396.2 257.761 1396.71 253.099 1396.52 248.693L1379.14 249.049C1379.3 252.71 1378.87 256.76 1378.44 260.377L1395.76 261.354ZM1395.64 262.402L1395.76 261.354L1378.44 260.377L1378.31 261.419L1395.64 262.402ZM1395.09 268.145C1395.09 268.105 1395.09 268.065 1395.09 268.026L1395.09 267.67C1395.1 267.358 1395.13 266.954 1395.18 266.44C1395.27 265.398 1395.43 264.083 1395.64 262.402L1378.31 261.422C1377.95 264.409 1377.56 267.298 1377.76 269.035L1395.09 268.145ZM1407.12 281.503C1400.9 279.235 1395.79 274.493 1395.09 268.145L1377.76 269.035C1378.9 279.368 1387.37 287.763 1398.93 291.979L1407.12 281.503ZM1428.25 280.164C1420.59 283.864 1413.03 283.662 1407.12 281.503L1398.93 291.979C1410.53 296.216 1425.15 296.204 1438.28 289.865L1428.25 280.164ZM1476.42 250.151C1460.52 261.211 1444.54 272.308 1428.25 280.164L1438.28 289.865C1456.09 281.272 1473.2 269.344 1488.83 258.471L1476.42 250.151ZM1476.34 250.21L1476.33 250.213L1488.93 258.405L1488.93 258.402L1476.34 250.21ZM1491.97 239.47C1486.85 242.897 1481.65 246.516 1476.43 250.145L1488.84 258.468C1493.89 254.929 1498.99 251.424 1504.14 247.954L1491.97 239.47ZM1499.51 233.146C1496.11 233.95 1493.23 235.555 1491.39 237.673C1489.56 239.79 1488.88 242.285 1489.49 244.711L1506.63 242.71C1506.72 243.057 1506.62 243.415 1506.36 243.72C1506.1 244.024 1505.68 244.254 1505.2 244.37L1499.51 233.146ZM1518.86 239.568C1517.54 236.964 1514.76 234.824 1511.13 233.619C1507.5 232.415 1503.32 232.245 1499.51 233.146L1505.2 244.37C1504.65 244.498 1504.05 244.474 1503.54 244.302C1503.02 244.13 1502.62 243.824 1502.43 243.452L1518.86 239.568ZM1520.72 243.209L1518.86 239.568L1502.43 243.452C1503.05 244.678 1503.68 245.905 1504.31 247.128L1520.72 243.209ZM1519.95 242.074L1519.65 241.774L1505.37 248.562L1505.59 248.773L1519.95 242.074ZM1525.47 248.12C1523.61 246.003 1521.62 243.749 1519.95 242.074L1505.59 248.776C1506.92 250.106 1508.61 252.018 1510.58 254.248L1525.47 248.12ZM1525.44 248.09L1525.44 248.084L1510.61 254.284L1510.62 254.29L1525.44 248.09ZM1525.51 248.167L1525.51 248.161L1510.55 254.219L1510.56 254.222L1525.51 248.167ZM1525.44 248.084L1510.63 254.305L1510.63 254.308L1525.44 248.084ZM1526.24 248.981L1525.48 248.129L1510.59 254.263L1511.34 255.112L1526.24 248.981ZM1538.88 261.47C1535.53 259.243 1531.09 254.468 1526.24 248.981L1511.34 255.112C1515.79 260.145 1521.45 266.461 1526.77 269.989L1538.88 261.47ZM1539.2 276.165C1542.01 274.188 1543.56 271.529 1543.5 268.773C1543.44 266.017 1541.78 263.39 1538.88 261.47L1526.77 269.989C1526.36 269.714 1526.12 269.339 1526.11 268.945C1526.1 268.551 1526.32 268.172 1526.73 267.889L1539.2 276.165ZM1526.41 279.238C1528.75 279.435 1531.12 279.261 1533.33 278.728C1535.55 278.194 1537.56 277.317 1539.2 276.165L1526.73 267.889C1526.96 267.727 1527.25 267.602 1527.56 267.526C1527.88 267.45 1528.21 267.424 1528.54 267.45L1526.41 279.238ZM1607.06 388.759C1581.69 349.681 1557.28 310.647 1535.62 271.256L1519.34 275.434C1541.18 315.136 1565.75 354.414 1591.16 393.573L1607.06 388.759ZM1929.54 385.692C1819.47 384.053 1708.69 382.402 1598.78 385.232L1599.44 397.1C1708.74 394.285 1819 395.924 1929.16 397.566L1929.54 385.692ZM1929.69 385.695H1929.68L1929.02 397.563H1929.02L1929.69 385.695ZM2128.16 387.667C2062.34 387.667 1996.07 386.681 1929.55 385.692L1929.17 397.566C1995.66 398.555 2062.12 399.544 2128.16 399.544V387.667ZM2143.37 398.059C2143.37 395.303 2141.77 392.66 2138.91 390.711C2136.06 388.762 2132.19 387.667 2128.16 387.667V399.544C2127.58 399.544 2127.03 399.387 2126.62 399.109C2126.21 398.831 2125.98 398.453 2125.98 398.059H2143.37ZM2128.16 408.452C2132.19 408.452 2136.06 407.357 2138.91 405.408C2141.77 403.459 2143.37 400.815 2143.37 398.059H2125.98C2125.98 397.665 2126.21 397.288 2126.62 397.009C2127.03 396.731 2127.58 396.575 2128.16 396.575V408.452ZM1928.13 406.462C1994.75 407.457 2061.5 408.452 2128.16 408.452V396.575C2061.72 396.575 1995.16 395.583 1928.51 394.588L1928.13 406.462ZM1605.13 405.868C1712.26 403.247 1820.02 404.85 1928.13 406.462L1928.51 394.588C1820.49 392.979 1712.22 391.364 1604.5 394L1605.13 405.868ZM1641.05 440.579C1631.57 426.208 1622.11 411.863 1612.76 397.519L1596.87 402.353C1606.24 416.721 1615.72 431.089 1625.19 445.458L1641.05 440.579ZM1641.06 440.6L1641.04 440.567L1625.2 445.47L1625.22 445.499L1641.06 440.6ZM1680.95 501.53C1667.8 481.151 1654.42 460.853 1641.07 440.612L1625.21 445.49C1638.57 465.738 1651.92 485.991 1665.04 506.322L1680.95 501.53ZM1767.23 501.111C1735.94 499.735 1704.62 498.695 1673.29 497.99L1672.7 509.861C1703.88 510.574 1735.02 511.586 1766.11 512.964L1767.23 501.111ZM1774.77 501.435C1772.22 501.328 1769.71 501.221 1767.23 501.111L1766.11 512.964C1768.63 513.077 1771.17 513.181 1773.7 513.288L1774.77 501.435ZM1853.45 511.12C1827.48 503.581 1799.49 502.468 1774.77 501.435L1773.7 513.288C1798.93 514.342 1823.88 515.441 1846.65 522.05L1853.45 511.12ZM1853.47 511.126L1853.45 511.117L1846.66 522.053L1846.68 522.059L1853.47 511.126ZM1858.23 512.599C1856.67 512.05 1854.88 511.533 1853.48 511.126L1846.68 522.059C1848.24 522.51 1849.41 522.852 1850.3 523.167L1858.23 512.599ZM1864.78 515.93C1862.43 514.143 1859.74 513.128 1858.23 512.599L1850.3 523.167C1850.72 523.315 1851.05 523.443 1851.33 523.573C1851.61 523.701 1851.77 523.805 1851.86 523.873L1864.78 515.93ZM1868.79 528.473C1869.45 526.495 1871.19 520.797 1864.78 515.93L1851.86 523.873C1851.99 523.974 1852.03 524.037 1852.04 524.06C1852.09 524.14 1852.11 524.223 1852.12 524.307C1852.16 524.642 1852.08 525.1 1851.84 525.839L1868.79 528.473ZM1863.74 534.943C1867.14 532.642 1868.31 529.922 1868.79 528.473L1851.84 525.839C1851.78 526.031 1851.69 526.219 1851.58 526.4C1851.5 526.519 1851.46 526.537 1851.5 526.51L1863.74 534.943ZM1848.53 537.986C1851.23 538.388 1854.04 538.319 1856.7 537.788C1859.36 537.256 1861.78 536.278 1863.74 534.943L1851.5 526.51C1851.54 526.484 1851.58 526.462 1851.63 526.445C1851.7 526.418 1851.77 526.397 1851.84 526.382C1851.94 526.362 1852.05 526.357 1852.15 526.37L1848.53 537.986ZM1840.44 535.243C1841.75 535.979 1844.53 537.404 1848.53 537.986L1852.15 526.37C1852.18 526.376 1852.14 526.37 1852 526.32C1851.83 526.25 1851.66 526.17 1851.51 526.082L1840.44 535.243ZM1836.8 532.743C1837.69 533.461 1838.92 534.382 1840.44 535.243L1851.51 526.082C1851 525.784 1850.54 525.456 1850.12 525.103L1836.8 532.743ZM1832.55 528.701C1833.51 529.732 1835.03 531.296 1836.8 532.743L1850.12 525.103C1849.07 524.219 1848.11 523.292 1847.23 522.326L1832.55 528.701ZM1831.34 527.362C1831.61 527.668 1832.05 528.158 1832.55 528.701L1847.23 522.326C1846.81 521.878 1846.45 521.471 1846.15 521.145L1831.34 527.362ZM1845.42 520.376L1845.39 520.349C1845.37 520.324 1845.34 520.3 1845.32 520.278C1845.31 520.275 1845.17 520.15 1844.99 520.004C1844.93 519.96 1844.83 519.88 1844.7 519.785C1844.09 519.352 1843.39 518.984 1842.63 518.692C1842.26 518.555 1840.56 517.896 1838.14 517.95C1836.42 517.985 1834.75 518.37 1833.35 519.054C1831.95 519.738 1830.88 520.691 1830.27 521.792C1829.48 523.223 1829.74 524.44 1829.8 524.711C1829.96 525.48 1830.31 526.047 1830.35 526.112C1830.46 526.299 1830.56 526.442 1830.61 526.51C1830.71 526.65 1830.8 526.756 1830.83 526.795L1830.97 526.964L1831.06 527.059L1831.34 527.362L1846.15 521.145L1845.82 520.782L1845.86 520.824L1845.99 520.981L1846.21 521.263C1846.62 521.828 1846.89 522.433 1847.02 523.057C1847.08 523.33 1847.33 524.547 1846.55 525.976C1845.94 527.077 1844.87 528.03 1843.47 528.715C1842.07 529.4 1840.4 529.785 1838.68 529.821C1836.27 529.871 1834.55 529.215 1834.19 529.078C1833.42 528.789 1832.73 528.42 1832.12 527.986C1831.88 527.815 1831.66 527.634 1831.45 527.442L1845.42 520.376ZM1829.47 524.972C1829.95 525.833 1830.61 526.658 1831.43 527.425L1845.44 520.39C1845.56 520.498 1845.65 520.616 1845.72 520.741L1829.47 524.972ZM1772.66 522.172C1795.47 523.137 1815.93 524.04 1834.77 528.473L1840.43 517.24C1818.96 512.195 1796.08 511.263 1773.73 510.316L1772.66 522.172ZM1765.26 521.854C1767.74 521.964 1770.21 522.068 1772.66 522.172L1773.73 510.316C1771.28 510.215 1768.84 510.111 1766.38 510.001L1765.26 521.854ZM1678.51 518.909C1707.45 519.609 1736.37 520.571 1765.26 521.854L1766.38 510.001C1737.32 508.721 1708.23 507.733 1679.12 507.038L1678.51 518.909ZM1817.77 777.633C1792.65 685.04 1742.1 596.929 1686.78 510.592L1670.85 515.354C1726.05 601.505 1775.93 688.594 1800.68 779.798L1817.77 777.633ZM1811.27 907.04C1831.52 868.164 1830.34 823.948 1817.77 777.633L1800.68 779.798C1812.97 825.097 1813.7 866.958 1794.89 903.062L1811.27 907.04ZM1679.2 1002.68C1749.08 979.007 1790.82 946.312 1811.27 907.04L1794.89 903.062C1776.12 939.108 1737.79 969.576 1671.48 992.039L1679.2 1002.68ZM1053.48 1020.41C1241.99 1080.66 1498.18 1064 1679.2 1002.68L1671.48 992.039C1494.1 1052.13 1243.55 1068.05 1060.85 1009.65L1053.48 1020.41ZM814.209 639.185C709.457 790.568 847.715 954.638 1053.48 1020.41L1060.85 1009.65C860.838 945.718 730.566 787.857 829.927 644.26L814.209 639.185ZM935.887 526.982C886.702 557.592 845.068 594.584 814.209 639.185L829.927 644.26C859.764 601.137 899.999 565.387 947.598 535.759L935.887 526.982ZM905.929 524.838C915.861 528.924 926.685 533.039 937.996 536.73L945.49 526.011C934.805 522.525 924.481 518.606 914.901 514.663L905.929 524.838ZM92.1586 505.758C362.931 526.011 638.473 527.166 910.484 525.688L910.345 513.813C638.394 515.289 363.731 514.122 94.0538 493.952L92.1586 505.758ZM80.335 504.986C84.9297 505.271 88.9375 505.517 92.1586 505.758L94.0538 493.952C90.0046 493.663 85.9516 493.399 81.8956 493.159L80.335 504.986ZM36.766 501.298C50.6327 503.163 67.6247 504.205 80.335 504.986L81.8999 493.159C68.9505 492.36 52.9235 491.366 40.1262 489.647L36.766 501.298ZM10.1891 494.665C17.3789 498.251 27.9462 500.11 36.766 501.298L40.1262 489.647C31.2716 488.453 24.2079 486.95 20.4434 485.071L10.1891 494.665ZM0.456396 483.782C1.291 489.24 6.34645 492.749 10.1891 494.665L20.4434 485.071C18.5786 484.141 17.8657 483.292 17.7527 482.553L0.456396 483.782ZM7.02891 471.311C3.46011 474.067 -0.369515 478.357 0.456396 483.782L17.7527 482.553C17.6397 481.811 18.0657 480.715 20.0522 479.18L7.02891 471.311ZM36.4966 457.647C26.49 460.613 15.614 464.681 7.02456 471.311L20.0522 479.18C26.1814 474.45 34.3622 471.228 43.4212 468.541L36.4966 457.647ZM51.4021 453.662C46.6639 454.85 41.5303 456.153 36.4966 457.647L43.4212 468.541C47.9419 467.199 52.6453 466.002 57.3834 464.814L51.4021 453.662ZM52.9191 453.282L51.4021 453.662L57.3834 464.814L58.9005 464.434L52.9191 453.282ZM64.8557 450.182C60.906 451.267 56.9264 452.3 52.9191 453.282L58.9005 464.434C63.117 463.38 67.3552 462.32 71.4673 461.165L64.8557 450.182ZM492.847 370.781C347.295 383.884 199.94 412.258 64.8557 450.182L71.4673 461.165C205.321 423.592 351.216 395.512 495.121 382.557L492.847 370.781ZM550.87 366.665C531.456 367.666 512.095 369.046 492.847 370.781L495.121 382.557C514.083 380.846 533.11 379.496 552.182 378.507L550.87 366.665ZM543.171 370.026L542.88 371.977L560.176 373.195L560.467 371.247L543.171 370.026ZM549.144 325.873C547.661 340.316 545.436 355.052 543.171 370.026L560.467 371.247C562.728 356.308 564.984 341.373 566.488 326.702L549.144 325.873ZM552.639 285.752C551.622 299.233 550.5 312.615 549.144 325.873L566.488 326.702C567.853 313.349 568.983 299.889 570 286.361L552.639 285.752ZM410.521 205.41C464.179 228.196 510.922 257.99 554.973 290.117L567.666 281.996C523.158 249.542 475.216 218.899 419.702 195.323L410.521 205.41ZM238.401 252.868C300.11 241.172 360.175 224.348 418.776 205.751L411.451 194.982C353.281 213.442 294.176 229.969 233.754 241.424L238.401 252.868ZM238.349 252.88L238.401 252.868L233.746 241.424L233.689 241.436L238.349 252.88ZM196.258 259.047C216.445 257.037 236.432 253.242 238.349 252.88L233.689 241.436C231.868 241.78 212.785 245.4 193.754 247.294L196.258 259.047ZM165.53 260.006C174.967 260.73 186.23 260.044 196.258 259.047L193.754 247.294C184.1 248.253 174.628 248.752 167.477 248.203L165.53 260.006ZM150.42 256.909C155.341 258.857 160.879 259.647 165.53 260.006L167.477 248.203C163.895 247.927 161.083 247.401 159.144 246.635L150.42 256.909ZM138.875 245.406C139.961 250.982 145.004 254.759 150.42 256.909L159.144 246.635C157.266 245.89 156.332 244.975 156.11 243.832L138.875 245.406ZM154.819 218.944C145.269 225.334 136.714 234.333 138.875 245.406L156.11 243.832C155.002 238.167 159.131 232.688 166.99 227.43L154.819 218.944ZM190.29 202.595C177.532 207.025 164.513 212.462 154.819 218.944L166.99 227.43C174.815 222.189 186.017 217.403 198.166 213.183L190.29 202.595ZM245.765 187.051C232.681 190.222 210.42 195.608 190.29 202.595L198.166 213.183C217.154 206.592 238.388 201.44 251.577 198.242L245.761 187.048L245.765 187.051ZM254.115 184.987C252.159 185.498 249.364 186.175 245.761 187.048L251.577 198.242C255.085 197.393 258.132 196.656 260.34 196.077L254.115 184.987ZM338.076 170.461C310.399 171.331 283.044 177.41 254.115 184.987L260.34 196.077C289.047 188.559 314.181 183.102 338.876 182.327L338.076 170.461ZM420.315 185.156C391.851 173.775 365.222 169.609 338.076 170.461L338.876 182.327C362.51 181.584 385.831 185.13 411.53 195.406L420.315 185.156ZM521.706 148.147C485.397 160.624 448.991 173.131 412.229 184.904L419.61 195.659C456.624 183.805 493.247 171.222 529.522 158.757L521.706 148.147ZM521.732 148.141L521.728 148.138L529.504 158.762L521.732 148.141ZM570.005 131.629C553.93 137.075 537.824 142.607 521.706 148.147L529.526 158.757C545.649 153.216 561.706 147.699 577.733 142.268L570.005 131.629ZM596.39 8.67162C580.072 50.2919 570.974 93.2454 565.21 136.41L582.528 137.488C588.235 94.7123 597.212 52.4833 613.187 11.7478L596.39 8.67162ZM615.025 1.32563C611.128 0.612748 606.975 0.986438 603.48 2.36455C599.986 3.74266 597.435 6.00939 596.39 8.67162L613.187 11.7478C613.037 12.1276 612.673 12.4512 612.174 12.6478C611.675 12.8443 611.083 12.8976 610.526 12.7959L615.025 1.32563ZM1059.42 473.399L1058.84 472.909L1045.36 480.415L1045.87 480.849L1059.42 473.399ZM983.734 515.141C1006.84 503.044 1031.33 492.132 1056.91 482.298L1048.38 471.947C1022.14 482.033 996.966 493.248 973.158 505.713L983.734 515.141ZM914.088 516.762C935.587 516.643 957.07 516.507 978.531 516.364L978.361 504.487C956.89 504.632 935.42 504.764 913.949 504.885L914.088 516.762ZM878.782 502.132C887.302 506.135 897.787 510.99 909.476 515.886L918.565 505.761C907.272 501.031 897.087 496.318 888.632 492.346L878.782 502.132ZM696.256 385.853C751.379 428.334 808.641 469.182 878.782 502.132L888.632 492.346C820.308 460.248 764.189 420.302 709.271 377.975L696.256 385.853ZM988.15 433.827C900.004 400.105 802.825 382.055 703.537 375.998L701.989 387.827C799.243 393.763 893.979 411.415 979.652 444.19L988.15 433.827ZM1058.84 472.909C1037.97 455.426 1005.85 440.597 988.15 433.827L979.652 444.19C996.448 450.615 1026.45 464.574 1045.36 480.415L1058.84 472.909ZM1005.69 515.099C1024.59 505.843 1044.24 497.324 1064.55 489.581L1056.06 479.218C1035.18 487.179 1014.98 495.938 995.544 505.455L1005.69 515.099ZM1017.15 504.223L1000.53 504.338L1000.7 516.216L1017.33 516.1L1017.15 504.223ZM1069.22 503.715C1051.85 503.929 1034.49 504.101 1017.15 504.223L1017.33 516.1C1034.71 515.978 1052.12 515.806 1069.53 515.592L1069.22 503.715ZM1061.36 502.159C1061.71 504.273 1061.58 506.319 1060.9 508.323L1077.85 510.981C1079.01 507.542 1079.18 504.143 1078.64 500.841L1061.36 502.159ZM1052.95 487.565C1057.84 492.877 1060.65 497.785 1061.36 502.159L1078.64 500.841C1077.54 494.127 1073.44 487.503 1067.66 481.235L1052.95 487.565ZM961.782 513.505L936.418 513.662L936.57 525.539L961.947 525.382L961.782 513.505ZM958.061 529.417C961.147 527.594 964.26 525.794 967.402 524.019L956.327 514.868C953.084 516.697 949.871 518.552 946.685 520.435L958.061 529.417ZM932.44 524.853C937.807 526.791 943.258 528.619 948.785 530.334L955.957 519.514C950.746 517.898 945.607 516.175 940.547 514.348L932.44 524.853ZM971.471 533.307C976.988 530.125 982.596 527.018 988.294 523.989L977.609 514.618C971.733 517.744 965.947 520.948 960.256 524.23L971.471 533.307ZM971.376 523.832C970.563 523.63 969.753 523.424 968.946 523.214L962.782 534.319C963.66 534.548 964.542 534.774 965.425 534.993L971.376 523.832ZM1049.61 520.236C1030.49 532.104 1003.23 531.757 971.376 523.832L965.425 534.993C999.065 543.358 1034.77 545.493 1061.3 529.028L1049.61 520.236ZM1056.25 515.206C1054.31 517.041 1052.08 518.728 1049.61 520.236L1061.3 529.028C1064.71 526.941 1067.78 524.606 1070.44 522.065L1056.25 515.206ZM1017.46 525.008C1032.81 524.901 1048.15 524.752 1063.49 524.574L1063.2 512.697C1047.89 512.878 1032.58 513.024 1017.28 513.13L1017.46 525.008ZM983.038 525.242L1017.46 525.008L1017.28 513.13C1005.82 513.211 994.344 513.291 982.864 513.365L983.038 525.242ZM948.985 530.911C899.034 561.34 856.943 598.268 825.998 642.992L841.716 648.066C871.61 604.866 912.245 569.205 960.556 539.774L948.985 530.911ZM966.916 532.202C963.951 531.464 961.011 530.681 958.096 529.856L951.445 540.831C954.592 541.719 957.77 542.568 960.965 543.364L966.916 532.202ZM1058.38 526.831C1033.71 542.143 1000.11 540.46 966.916 532.202L960.965 543.364C995.888 552.049 1037.96 555.55 1070.07 535.62L1058.38 526.831ZM1070.75 515.883C1068.19 519.535 1064.2 523.217 1058.38 526.831L1070.07 535.62C1077.33 531.118 1082.78 526.228 1086.44 521.011L1070.75 515.883ZM1251.66 509.404C1193.87 510.58 1136.13 511.756 1078.43 512.51L1078.76 524.384C1136.57 523.63 1194.4 522.451 1252.18 521.275L1251.66 509.404ZM1251.92 509.401H1251.92V521.278H1251.93L1251.92 509.401ZM1664.64 506.711C1527.14 503.795 1389.26 506.604 1251.67 509.404L1252.19 521.275C1389.86 518.475 1527.22 515.681 1664.1 518.582L1664.64 506.711ZM1804.95 779.258C1779.73 686.316 1728.54 597.722 1672.33 510.259L1656.4 515.034C1712.52 602.327 1763.02 689.891 1787.85 781.422L1804.95 779.258ZM1798.99 904.056C1818.15 867.258 1817.31 824.809 1804.95 779.258L1787.85 781.422C1799.94 825.961 1800.33 866.05 1782.61 900.074L1798.99 904.056ZM1673.41 994.699C1740.61 971.934 1779.79 940.908 1798.99 904.056L1782.61 900.074C1765.09 933.707 1729.31 962.503 1665.68 984.06L1673.41 994.699ZM1059.01 1012.34C1243.16 1071.2 1495.12 1055.09 1673.41 994.699L1665.68 984.057C1491.03 1043.22 1244.72 1058.59 1066.38 1001.58L1059.01 1012.34ZM825.998 642.992C725.289 788.531 857.556 947.945 1059.01 1012.34L1066.38 1001.58C870.706 939.037 746.389 785.835 841.716 648.066L825.998 642.992ZM1658.79 497.681C1522.78 494.97 1386.29 497.75 1250.53 500.511L1251.05 512.382C1386.89 509.621 1522.87 506.856 1658.29 509.553L1658.79 497.681ZM1613.51 449.431C1625.97 468.263 1638.33 487.125 1650.59 506.016L1666.49 501.215C1654.26 482.309 1641.81 463.425 1629.36 444.552L1613.51 449.431ZM1613.52 449.448L1613.53 449.466L1629.34 444.516L1629.33 444.499L1613.52 449.448ZM1613.46 449.359L1613.47 449.374L1629.37 444.57L1629.36 444.552L1613.46 449.359ZM1613.45 449.345L1613.46 449.359L1629.36 444.552L1629.35 444.54L1613.45 449.345ZM1582.84 402.715C1592.99 418.287 1603.21 433.842 1613.48 449.38L1629.33 444.502C1619.09 428.963 1608.84 413.437 1598.72 397.89L1582.84 402.715ZM1559.33 407.264C1569.92 406.875 1580.52 406.534 1591.13 406.237L1590.42 394.368C1579.74 394.668 1569.07 395.013 1558.4 395.402L1559.33 407.264ZM1143.96 463.502C1273.65 427.099 1422 412.291 1559.33 407.264L1558.4 395.402C1420.15 400.464 1269.6 415.394 1137.36 452.516L1143.96 463.502ZM1075.86 485.353C1098.01 477.289 1120.74 469.996 1143.96 463.502L1137.36 452.516C1113.59 459.163 1090.33 466.627 1067.66 474.88L1075.86 485.353ZM1091.6 499.855C1090.26 491.669 1085.46 483.951 1079.15 476.988L1064.37 483.245C1069.79 489.222 1073.35 495.255 1074.32 501.17L1091.6 499.855ZM1091.29 510.408C1092.1 506.895 1092.18 503.362 1091.6 499.855L1074.32 501.17C1074.73 503.688 1074.67 506.153 1074.11 508.555L1091.29 510.408ZM1250.49 500.511C1194.37 501.654 1138.37 502.794 1082.53 503.543L1082.87 515.42C1138.82 514.666 1194.9 513.525 1251.01 512.385L1250.49 500.511ZM1250.54 500.511H1250.5L1251 512.385H1251.03L1250.54 500.511ZM1250.39 500.514L1251.18 512.379H1251.19L1250.39 500.514ZM568.666 142.034C555.212 146.62 541.771 151.225 528.344 155.847L536.155 166.459C549.648 161.821 563.063 157.213 576.421 152.667L568.666 142.034ZM572.678 248.019C574.912 214.683 577.16 181.163 581.207 147.841L563.88 146.859C559.798 180.438 557.538 214.175 555.308 247.475L572.678 248.019ZM572.674 248.057L572.678 248.019L555.308 247.475L555.303 247.508L572.674 248.057ZM572.674 248.075V248.069L555.303 247.499V247.508L572.674 248.075ZM572.674 248.075V248.06L555.303 247.526V247.541L572.674 248.075ZM570.9 274.021C571.513 265.395 572.091 256.74 572.674 248.075L555.303 247.535C554.721 256.202 554.143 264.84 553.534 273.448L570.9 274.021ZM424.405 200.873C472.886 222.225 515.781 249.088 555.929 277.833L568.509 269.635C527.879 240.545 483.914 212.952 433.829 190.89L424.405 200.873ZM528.344 155.847C494.329 167.537 460.067 179.31 425.401 190.513L432.834 201.25C467.726 189.975 502.175 178.134 536.155 166.459L528.344 155.847ZM565.001 294.853C564.172 305.405 563.221 315.952 562.15 326.494L579.498 327.322C580.581 316.746 581.515 306.133 582.363 295.501L565.001 294.853ZM637.807 335.663C618.912 320.852 599.776 305.851 580.094 291.168L567.27 299.188C586.784 313.747 605.78 328.638 624.697 343.466L637.807 335.663ZM647.553 343.3C644.306 340.761 641.059 338.214 637.807 335.663L624.697 343.466L634.452 351.109L647.553 343.3ZM661.772 354.45C657.038 350.735 652.3 347.014 647.553 343.3L634.452 351.109C639.19 354.818 643.924 358.532 648.657 362.247L661.772 354.45ZM661.807 354.476L661.781 354.458L648.649 362.241L648.675 362.259L661.807 354.476ZM661.837 354.5L661.798 354.47L648.679 362.265L648.718 362.294L661.837 354.5ZM678.542 367.595C672.968 363.233 667.4 358.868 661.837 354.5L648.718 362.294C654.287 366.665 659.864 371.042 665.449 375.41L678.542 367.595ZM565.284 377.889C600.685 376.384 636.208 376.176 671.544 377.432L672.448 365.572C636.412 364.29 600.22 364.5 564.201 366.036L565.284 377.889ZM562.15 326.494C560.62 341.471 558.364 356.38 556.094 371.351L573.391 372.574C575.656 357.633 577.938 342.528 579.498 327.322L562.15 326.494ZM541.528 380.992C538.103 404.072 535.016 427.595 535.016 450.814H552.404C552.404 428.245 555.408 405.242 558.824 382.188L541.528 380.992ZM496.825 391.387C514.78 389.768 532.796 388.475 550.852 387.509L549.5 375.671C531.126 376.648 512.795 377.969 494.551 379.611L496.825 391.387ZM76.4228 469.405C209.351 432.09 354.159 404.232 496.825 391.387L494.551 379.611C350.238 392.605 203.974 420.759 69.8155 458.419L76.4228 469.405ZM63.3908 472.799C67.5769 471.751 72.0629 470.628 76.4228 469.405L69.8155 458.419C65.7129 459.549 61.5782 460.624 57.4138 461.643L63.3908 472.799ZM61.8694 473.179L63.3908 472.796L57.4138 461.643L55.8924 462.026L61.8694 473.179ZM48.6114 476.712C52.7539 475.483 57.1313 474.367 61.8781 473.176L55.8924 462.026C51.1543 463.214 46.3423 464.437 41.6867 465.815L48.6114 476.712ZM29.8197 485.083C34.1014 481.775 40.2653 479.189 48.6157 476.709L41.6911 465.815C32.3931 468.574 23.5384 472.006 16.7964 477.214L29.8197 485.083ZM30.0023 484.818C29.9152 484.942 29.8149 485.061 29.7023 485.175C29.6632 485.213 29.6893 485.184 29.8197 485.083L16.7964 477.214C15.8442 477.927 15.0358 478.724 14.3926 479.584L29.9979 484.818H30.0023ZM28.1331 477.876C28.0722 477.847 28.2505 477.93 28.5374 478.138L15.8575 486.264C16.4443 486.695 17.1224 487.093 17.8788 487.47L28.1331 477.876ZM42.6474 480.905C38.4396 480.341 35.0534 479.744 32.4844 479.162C29.7762 478.547 28.5069 478.063 28.1331 477.876L17.8788 487.47C20.4087 488.732 23.6819 489.679 27.0029 490.433C30.4674 491.22 34.61 491.93 39.2873 492.559L42.6474 480.905ZM82.2955 484.234C69.4982 483.447 54.7057 482.529 42.6474 480.905L39.2873 492.559C52.4149 494.326 68.1681 495.288 80.7349 496.063L82.2955 484.234ZM82.2868 484.234H82.2781L80.7567 496.066H80.7697L82.2868 484.234ZM95.4709 485.098C91.6022 484.807 87.0814 484.527 82.3085 484.234L80.7436 496.063C85.5687 496.36 89.9069 496.627 93.58 496.903L95.4709 485.098ZM890.028 505.01C624.784 506.313 357.706 504.71 95.4709 485.098L93.58 496.903C356.885 516.599 624.819 518.19 890.149 516.887L890.028 505.01ZM871.392 509.472C875.535 511.42 880.204 513.597 885.285 515.898L894.892 505.998C890.315 503.921 885.765 501.817 881.243 499.686L871.392 509.472ZM677.547 384.837C735.591 429.911 796.191 474.144 871.392 509.472L881.243 499.686C807.932 465.245 748.519 421.971 690.601 376.992L677.547 384.837ZM563.945 386.874C603.832 385.113 643.828 385.027 683.493 386.841L684.654 374.991C644.18 373.138 603.419 373.23 562.823 375.021L563.945 386.874ZM565.445 450.814C565.445 427.874 568.54 404.895 572.035 381.55L554.738 380.342C551.239 403.698 548.057 427.209 548.057 450.814H565.445ZM550.23 461.207C554.266 461.207 558.135 460.112 560.989 458.163C563.842 456.214 565.445 453.571 565.445 450.814H548.057C548.057 450.421 548.286 450.043 548.694 449.765C549.101 449.486 549.654 449.33 550.23 449.33V461.207ZM535.016 450.814C535.016 453.571 536.619 456.214 539.472 458.163C542.326 460.112 546.195 461.207 550.23 461.207V449.33C550.807 449.33 551.36 449.486 551.767 449.765C552.175 450.043 552.404 450.421 552.404 450.814H535.016ZM339.475 191.226C358.202 190.638 376.772 193.025 397.276 200.216L405.218 189.649C382.027 181.516 360.449 178.677 338.676 179.36L339.475 191.226ZM265.013 204.394C293.559 196.915 317.019 191.929 339.475 191.226L338.676 179.36C313.238 180.162 287.547 185.771 258.784 193.304L265.013 204.394ZM255.359 206.785C259.127 205.87 262.474 205.059 265.013 204.394L258.784 193.304C256.493 193.904 253.389 194.658 249.534 195.59L255.359 206.785ZM204.074 221.126C222.179 214.84 242.066 210.009 255.359 206.785L249.534 195.59C236.341 198.791 215.441 203.857 196.202 210.538L204.074 221.126ZM176.119 233.793C182.552 229.488 192.381 225.185 204.074 221.126L196.202 210.538C183.9 214.808 172.246 219.757 163.948 225.307L176.119 233.793ZM169.034 242.653C168.712 241.014 169.573 238.173 176.119 233.793L163.948 225.307C155.654 230.859 150.429 237.217 151.798 244.227L169.034 242.653ZM169.09 243.03V243.016L151.746 243.865V243.88L169.09 243.03ZM165.691 238.93C165.874 239.002 166.048 239.085 166.212 239.176C166.482 239.325 166.921 239.586 167.377 239.984C168.264 240.758 168.838 241.679 169.034 242.653C169.094 242.941 169.103 243.173 169.103 243.17L151.733 243.74C151.746 243.898 151.789 244.572 152.176 245.385C152.55 246.16 153.111 246.804 153.706 247.321C154.793 248.265 156.071 248.85 156.962 249.204L165.691 238.93ZM168.938 239.352C167.999 239.287 167.069 239.174 166.156 239.013C165.539 238.897 165.456 238.835 165.691 238.93L156.962 249.204C159.644 250.267 163.143 250.857 166.99 251.154L168.938 239.352ZM191.872 238.479C182.491 239.411 174.372 239.77 168.938 239.352L166.99 251.154C174.715 251.748 184.635 251.202 194.376 250.231L191.872 238.479ZM230.216 232.849C228.521 233.17 210.068 236.667 191.872 238.479L194.376 250.231C213.733 248.304 233.085 244.631 234.867 244.292L230.216 232.849ZM230.264 232.84L230.22 232.849L234.872 244.292L234.915 244.284L230.264 232.84ZM397.62 189.536C342.688 206.767 287.108 222.064 230.264 232.84L234.915 244.284C292.99 233.273 349.495 217.703 404.875 200.329L397.62 189.536ZM23.095 487.909C21.229 488.073 19.3355 487.819 17.6995 487.184C16.0634 486.55 14.7733 485.569 14.0231 484.391L29.9979 479.696C29.7708 479.333 29.4869 478.986 29.159 478.66C28.5995 478.098 27.899 477.607 27.0899 477.211C25.2991 476.325 23.0805 475.938 20.8868 476.13L23.095 487.909ZM29.3807 478.895C29.6922 479.232 29.9487 479.591 30.1457 479.967C30.1979 480.056 30.4283 480.48 30.5674 481.045C30.6108 481.24 30.8195 482.069 30.5369 483.111C30.1993 484.345 29.298 485.474 27.9625 486.336C26.6271 487.198 24.9261 487.749 23.1037 487.909L20.8868 476.13C19.0631 476.291 17.3563 476.842 16.02 477.704C14.6836 478.567 13.782 479.697 13.4449 480.932C13.158 481.971 13.3667 482.802 13.4145 482.995C13.6016 483.776 14.0213 484.524 14.6403 485.193L29.3807 478.895ZM13.4536 481.668C13.5092 481.353 13.6038 481.042 13.7362 480.739C14.0094 480.117 14.4261 479.528 14.9707 478.996C15.7738 478.219 16.838 477.585 18.0739 477.148C19.3099 476.71 20.6814 476.481 22.0735 476.481V488.358C24.1984 488.357 26.2494 487.825 27.8396 486.862C29.4299 485.9 30.4496 484.573 30.7065 483.132L13.4536 481.668ZM22.0735 476.481C23.8976 476.481 25.6755 476.873 27.1554 477.601C28.6353 478.33 29.7423 479.358 30.3196 480.54C30.6847 481.285 30.7369 481.906 30.7543 482.057C30.7934 482.494 30.7456 482.835 30.7369 482.918C30.6981 483.236 30.6211 483.55 30.5065 483.859L13.6579 480.941C13.6018 481.091 13.5496 481.242 13.5101 481.395C13.4927 481.472 13.4449 481.668 13.4102 481.92C13.4015 482.004 13.358 482.345 13.3971 482.782C13.4102 482.933 13.4623 483.554 13.8318 484.302C14.4096 485.483 15.5163 486.51 16.9952 487.238C18.4742 487.965 20.2507 488.357 22.0735 488.358V476.481ZM970.537 210.989L971.823 210.253L960.639 201.158L959.352 201.894L970.537 210.989ZM961.021 188.607C958.913 193.387 957.265 199.37 956.296 205.837L973.592 207.049C974.479 201.131 975.953 195.92 977.67 192.033L961.021 188.607ZM1042.35 129.453C1003.89 140.175 973.019 161.402 961.021 188.607L977.67 192.033C987.985 168.647 1014.75 149.976 1048.92 140.448L1042.35 129.453ZM1044.83 128.74C1043.82 129.031 1043.01 129.266 1042.35 129.453L1048.92 140.448C1049.72 140.225 1050.65 139.952 1051.63 139.67L1044.83 128.74ZM1067.89 123.354C1059.07 124.589 1049.89 127.273 1044.83 128.74L1051.63 139.67C1056.95 138.126 1064.55 135.947 1071.38 134.99L1067.89 123.354ZM1082.6 123.354C1078.35 122.368 1073.03 122.635 1067.89 123.354L1071.38 134.99C1073.38 134.711 1074.88 134.604 1075.93 134.59C1077.06 134.575 1077.31 134.67 1077 134.599L1082.6 123.354ZM1088.15 125.997C1086.72 124.714 1084.79 123.865 1082.6 123.354L1077 134.599C1076.59 134.497 1076.2 134.359 1075.84 134.189C1075.27 133.917 1074.76 133.584 1074.33 133.203L1088.15 125.997ZM1090.67 130.905C1090.44 128.921 1089.59 127.279 1088.15 125.997L1074.33 133.203C1073.96 132.877 1073.67 132.515 1073.46 132.128C1073.31 131.849 1073.32 131.727 1073.34 131.843L1090.67 130.905ZM1081.54 148.988C1087.59 143.257 1091.39 137.14 1090.67 130.905L1073.34 131.843C1073.6 134.12 1072.3 137.443 1067.44 142.04L1081.54 148.988ZM1057.95 165.265C1067 160.223 1075.48 154.724 1081.54 148.988L1067.44 142.04C1062.66 146.565 1055.5 151.307 1046.96 156.057L1057.95 165.265ZM1030.54 178.951C1039.15 174.948 1048.88 170.313 1057.95 165.265L1046.96 156.057C1038.51 160.764 1029.3 165.164 1020.76 169.128L1030.54 178.951ZM1025.56 181.252C1027.18 180.504 1028.85 179.737 1030.54 178.951L1020.76 169.128L1015.83 171.409L1025.56 181.252ZM1025.6 181.234H1025.6L1015.79 171.429H1015.78L1025.6 181.234ZM1009.78 188.832C1013.45 186.846 1018.97 184.298 1025.56 181.255L1015.82 171.415C1009.46 174.351 1003.29 177.19 998.991 179.521L1009.78 188.832ZM975.457 208.162C987.159 201.446 998.526 194.919 1009.78 188.832L998.991 179.521C987.498 185.735 975.931 192.375 964.268 199.073L975.457 208.162ZM971.823 210.253L975.457 208.162L964.268 199.073L960.639 201.158L971.823 210.253ZM741.059 260.653C745.711 258.679 751.248 256.009 756.03 252.975L744.194 244.272C740.481 246.629 735.926 248.85 731.887 250.564L741.059 260.653ZM728.653 252.342C728.278 253.174 728.008 254.026 727.845 254.89L745.102 256.324C745.102 256.327 745.137 256.14 745.311 255.748L728.653 252.342ZM731.87 247.134C730.556 248.795 729.478 250.54 728.653 252.342L745.311 255.748C745.632 255.017 746.25 253.963 747.245 252.681L731.87 247.134ZM742.668 236.964C738.397 239.997 734.763 243.419 731.87 247.134L747.245 252.681C749.357 249.976 752.001 247.481 755.104 245.266L742.668 236.964ZM755.904 231.329C753.331 231.578 750.962 232.43 749.149 233.241C746.798 234.319 744.625 235.567 742.668 236.964L755.104 245.266C756.178 244.489 757.368 243.792 758.656 243.185C758.86 243.088 759.075 243.003 759.299 242.93C759.39 242.9 759.047 243.019 758.351 243.087L755.904 231.329ZM756.726 231.269C756.451 231.281 756.177 231.301 755.904 231.329L758.351 243.087C758.174 243.103 758 243.115 757.821 243.123L756.726 231.269ZM766.784 237.252C766.037 235.518 765.015 234.194 763.728 233.22L750.814 241.175C749.905 240.486 749.875 240.073 750.101 240.605L766.784 237.252ZM764.906 245.569C766.997 242.924 767.997 240.067 766.784 237.252L750.101 240.605C750 240.371 749.941 240.129 749.923 239.886C749.91 239.736 749.92 239.586 749.953 239.438C749.992 239.286 750.001 239.429 749.61 239.919L764.906 245.569ZM756.03 252.975C759.608 250.703 762.833 248.185 764.906 245.569L749.61 239.919C748.797 240.949 747.067 242.451 744.194 244.272L756.03 252.975ZM1380.35 244.548C1379.76 245.357 1378.91 246.063 1377.86 246.613C1376.81 247.162 1375.58 247.54 1374.29 247.718C1372.99 247.896 1371.65 247.868 1370.37 247.638C1369.09 247.407 1367.9 246.98 1366.9 246.389L1378.32 237.43C1376.97 236.634 1375.3 236.133 1373.53 235.99C1371.76 235.859 1369.98 236.099 1368.42 236.68C1366.86 237.261 1365.6 238.154 1364.8 239.239L1380.35 244.548ZM1378.04 237.276C1379.04 237.822 1379.85 238.517 1380.4 239.307C1380.99 240.141 1381.29 241.057 1381.27 241.983C1381.24 242.909 1380.91 243.818 1380.28 244.64L1364.87 239.147C1362.8 241.858 1364.59 244.254 1364.75 244.482C1365.31 245.273 1366.12 245.969 1367.12 246.519L1378.04 237.276ZM1377.51 237.006L1377.5 237.003L1367.66 246.793L1367.67 246.798L1377.51 237.006ZM1376.75 236.688L1376.73 236.679L1368.45 247.125L1368.47 247.131L1376.75 236.688ZM1249.41 195.356L1258.48 192.107L1250.39 181.593C1247.39 182.671 1244.37 183.752 1241.35 184.83L1249.41 195.356ZM1252.22 173.083C1247.18 177.539 1242.45 182.153 1238.04 186.911L1252.72 193.277C1256.83 188.838 1261.24 184.533 1265.94 180.376L1252.22 173.083ZM1260.42 168.006C1258.27 169.185 1256.58 170.162 1255.32 170.936C1254.24 171.596 1253.02 172.377 1252.22 173.083L1265.94 180.376C1265.72 180.569 1265.63 180.613 1265.9 180.429C1266.11 180.29 1266.45 180.073 1266.93 179.776C1267.89 179.185 1269.33 178.351 1271.3 177.273L1260.42 168.006ZM1275.82 160.102C1270.59 162.647 1265.46 165.282 1260.42 168.006L1271.3 177.273C1276.09 174.681 1280.98 172.173 1285.96 169.752L1275.82 160.102ZM1318.56 140.792C1303.97 146.87 1289.72 153.31 1275.82 160.102L1285.96 169.752C1299.49 163.137 1313.38 156.864 1327.58 150.944L1318.56 140.792ZM1360.13 125.97C1348.74 128.933 1333.71 134.509 1318.56 140.792L1327.58 150.944C1342.54 144.736 1356.47 139.628 1366.32 137.069L1360.13 125.97ZM1372.73 123.716C1369.4 123.879 1365.12 124.669 1360.13 125.97L1366.32 137.069C1370.73 135.92 1373.16 135.602 1373.98 135.564L1372.73 123.716ZM1377.48 138.26C1379.93 135.599 1381.53 132.951 1381.99 130.344L1364.72 128.936C1364.67 129.263 1364.33 130.228 1362.77 131.929L1377.48 138.26ZM1364.58 148.373C1369.93 145.003 1374.39 141.603 1377.48 138.26L1362.77 131.929C1360.79 134.067 1357.51 136.665 1352.79 139.643L1364.58 148.373ZM1324.61 168.03C1339.4 161.892 1353.88 155.113 1364.58 148.373L1352.79 139.643C1343.35 145.591 1330.01 151.892 1315.58 157.881L1324.61 168.03ZM1264.44 190.085C1276.16 186.163 1300.76 177.932 1324.61 168.03L1315.58 157.881C1292.48 167.471 1268.52 175.494 1256.79 179.42L1264.44 190.085ZM1258.48 192.107C1259.51 191.742 1261.48 191.074 1264.44 190.085L1256.79 179.42C1253.97 180.364 1251.7 181.124 1250.39 181.593L1258.48 192.107ZM2212.92 403.306C2212.92 403.7 2212.69 404.077 2212.28 404.356C2211.88 404.634 2211.32 404.791 2210.75 404.791V392.913C2206.71 392.913 2202.84 394.008 2199.99 395.957C2197.13 397.906 2195.53 400.55 2195.53 403.306H2212.92ZM2210.75 401.821C2211.32 401.821 2211.88 401.978 2212.28 402.256C2212.69 402.535 2212.92 402.912 2212.92 403.306H2195.53C2195.53 406.062 2197.13 408.706 2199.99 410.655C2202.84 412.603 2206.71 413.698 2210.75 413.698V401.821ZM2219.44 401.821H2210.75V413.698H2219.44V401.821ZM2217.27 403.306C2217.27 402.912 2217.5 402.535 2217.9 402.256C2218.31 401.978 2218.86 401.821 2219.44 401.821V413.698C2223.47 413.698 2227.34 412.603 2230.2 410.655C2233.05 408.706 2234.65 406.062 2234.65 403.306H2217.27ZM2219.44 404.791C2218.86 404.791 2218.31 404.634 2217.9 404.356C2217.5 404.077 2217.27 403.7 2217.27 403.306H2234.65C2234.65 400.55 2233.05 397.906 2230.2 395.957C2227.34 394.008 2223.47 392.913 2219.44 392.913V404.791ZM2210.75 404.791H2219.44V392.913H2210.75V404.791Z" fill="#CC99AC"/>
</g>
<path fill-rule="evenodd" clip-rule="evenodd" d="M612.773 7.06222C613.601 7.21315 614.377 7.47402 615.056 7.82993C615.736 8.18583 616.306 8.62978 616.735 9.13638C617.163 9.64298 617.441 10.2023 617.553 10.7823C617.664 11.3624 617.607 11.9518 617.385 12.5168C602.106 51.4855 593.282 91.6539 587.587 132.318C595.412 129.69 603.252 127.084 611.108 124.5C723.624 87.5117 836.117 50.5057 948.454 13.2947C949.224 13.0395 950.061 12.8905 950.916 12.8562C951.771 12.8218 952.628 12.9028 953.437 13.0946C954.246 13.2864 954.992 13.5851 955.632 13.9738C956.272 14.3625 956.794 14.8334 957.167 15.3599C957.541 15.8863 957.759 16.4578 957.809 17.0418C957.86 17.6258 957.741 18.2108 957.46 18.7635C957.179 19.3162 956.742 19.8257 956.173 20.2629C955.604 20.7002 954.915 21.0566 954.144 21.3118C841.79 58.5257 729.279 95.5377 616.764 132.526C606.55 135.887 596.362 139.285 586.201 142.719C581.78 177.439 579.428 212.471 577.085 247.383V247.392C576.294 259.195 575.503 270.983 574.634 282.741C597.377 299.447 619.224 316.573 640.693 333.406L640.728 333.436L640.932 333.593L650.826 341.346L664.845 352.335L664.849 352.341C673.352 359.013 681.837 365.67 690.339 372.286C794.878 377.518 897.499 395.746 990.275 431.238C1008.19 438.094 1040.84 453.139 1062.2 471.035C1062.89 471.608 1063.57 472.187 1064.23 472.769C1087.32 464.289 1111.21 456.649 1135.71 449.769C1268.59 412.466 1419.68 397.51 1558.16 392.438C1567.13 392.109 1576.11 391.815 1585.1 391.551C1555.42 345.723 1526.95 299.693 1502.76 253.072C1499.52 255.288 1496.18 257.613 1492.75 259.997L1492.73 260.012C1476.73 271.141 1458.88 283.561 1440.79 292.291C1426.29 299.289 1409.91 299.355 1396.88 294.598C1383.98 289.891 1374.67 280.586 1373.42 269.258C1373.21 267.361 1373.58 264.329 1373.95 261.36L1374.1 260.133C1374.54 256.511 1374.95 252.612 1374.79 249.138C1374.63 245.444 1373.84 243.167 1372.9 242.16C1372.82 242.073 1372.73 241.993 1372.62 241.92C1372.46 241.905 1371.81 241.884 1370.43 242.235C1359.58 245.002 1350.07 249.293 1339.69 253.975L1339.68 253.978C1338.1 254.694 1336.49 255.418 1334.85 256.149C1322.75 261.55 1309.43 267.055 1292.82 269.742C1276.51 272.382 1257.53 272.919 1241.36 269.255C1224.82 265.511 1211.19 257.307 1207.2 242.998C1204.46 233.178 1208.39 221.738 1214.75 210.933C1149.79 233.514 1081.42 255.095 1011.74 269.095C1009.15 269.617 1006.67 270.137 1004.46 270.6C1002.35 271.043 1000.49 271.432 999.026 271.72C995.87 272.337 992.831 272.848 989.893 272.833C983.603 272.803 979.295 270.324 974.474 267.551L974.47 267.548C974.192 267.387 973.914 267.224 973.627 267.064C966.254 262.838 961.182 256.817 957.747 250.219C954.296 243.592 952.349 236.109 951.492 228.609C951.387 227.669 951.297 226.729 951.223 225.788C937.821 233.238 924.011 240.578 909.849 247.291C872.635 264.932 831.635 278.971 786.193 280.405C775.269 280.752 761.042 280.422 748.909 277.48C741.359 275.648 734.286 272.693 729.474 268.153C699.516 277.361 664.597 280.411 632.821 280.411C631.092 280.411 629.433 279.941 628.211 279.106C626.988 278.271 626.301 277.138 626.301 275.957C626.301 274.775 626.988 273.643 628.211 272.807C629.433 271.972 631.092 271.503 632.821 271.503C663.658 271.503 696.534 268.516 724.158 260.018C723.865 259.132 723.641 258.236 723.489 257.333C723.145 255.359 723.689 253.31 724.489 251.49C725.31 249.61 726.549 247.654 728.023 245.747C731.113 241.78 734.996 238.126 739.559 234.889C743.776 231.943 749.348 228.965 755.295 228.389C758.603 228.068 762.163 228.49 765.223 230.126C768.118 231.67 769.888 233.938 770.953 236.415C772.613 240.263 771.122 243.96 768.731 246.98C766.345 249.996 762.746 252.767 758.986 255.151C753.343 258.732 746.688 261.847 741.328 264.014C744.241 266.247 748.305 267.88 753.274 269.086C763.02 271.449 775.234 271.835 785.593 271.506C827.467 270.184 866.037 257.215 902.416 239.972C919.312 231.961 935.439 223.19 951.084 214.347C951.61 204.255 953.774 194.738 956.856 187.751C969.28 159.588 1001.18 137.725 1040.7 126.703C1041.24 126.555 1041.94 126.35 1042.78 126.103H1042.79C1047.79 124.642 1057.73 121.744 1067.02 120.444C1072.37 119.696 1078.63 119.295 1083.99 120.545C1086.83 121.204 1089.55 122.356 1091.61 124.197C1093.66 126.032 1094.72 128.253 1095 130.67C1095.84 137.897 1091.41 144.715 1085.07 150.725C1078.69 156.767 1069.88 162.453 1060.7 167.566C1051.48 172.697 1041.61 177.395 1032.98 181.403C1031.16 182.252 1029.41 183.063 1027.73 183.838C1021.31 186.798 1016.04 189.233 1012.48 191.16C1001.73 196.977 990.549 203.391 979 210.015L978.965 210.036C974.044 212.863 969.054 215.725 964.003 218.596C963.985 221.684 964.142 224.814 964.494 227.917C965.289 234.886 967.076 241.552 970.032 247.232C973.005 252.939 977.017 257.378 982.012 260.237C988.397 263.898 988.989 263.922 989.984 263.925C990.867 263.931 992.305 263.768 995.426 263.156C997.004 262.847 998.617 262.509 1000.52 262.108C1002.58 261.674 1004.99 261.17 1008.07 260.549C1081.94 245.706 1154.57 222.148 1223.76 197.77C1231 188.47 1239.37 179.603 1248.79 171.26C1250.42 169.823 1253.82 167.816 1257.71 165.69C1262.8 162.932 1268 160.264 1273.29 157.688C1285.53 151.69 1301.02 144.593 1316.3 138.257C1331.49 131.95 1346.81 126.258 1358.58 123.193C1364.3 121.706 1370.02 120.61 1374.71 120.723C1377.12 120.779 1380.04 121.168 1382.48 122.516C1385.13 123.977 1386.27 126.029 1386.43 128.045C1386.76 132.208 1384.5 136.22 1381.16 139.842C1377.79 143.488 1373.03 147.087 1367.52 150.555C1356.51 157.492 1341.74 164.392 1326.87 170.568C1302.67 180.616 1277.17 189.141 1265.84 192.927L1265.83 192.933C1263.27 193.788 1261.43 194.403 1260.5 194.735C1251.49 197.972 1242.47 201.188 1233.43 204.385C1232.55 205.565 1231.7 206.754 1230.88 207.951C1222.38 220.298 1217.51 232.362 1220.01 241.329C1222.98 251.968 1232.66 257.904 1245.46 260.802C1258.63 263.783 1275.01 263.471 1289.82 261.075C1304.08 258.768 1315.8 254.011 1327.72 248.693C1329.26 248.004 1330.81 247.303 1332.38 246.597C1342.66 241.947 1353.52 237.041 1365.86 233.891C1369.21 233.039 1372.73 232.691 1376.15 233.342C1379.69 234.013 1382.2 235.575 1383.87 237.35C1386.91 240.581 1387.66 245.061 1387.83 248.871C1388.01 252.903 1387.53 257.259 1387.1 260.864L1386.97 261.909C1386.57 265.223 1386.3 267.456 1386.43 268.59C1387.34 276.931 1394.13 283.499 1403.03 286.741C1411.78 289.939 1422.87 290.034 1433.27 285.016C1450.31 276.788 1466.86 265.279 1482.63 254.311L1482.64 254.308C1487.73 250.742 1492.86 247.209 1498.05 243.71C1497.79 242.611 1498.14 241.484 1499.03 240.552C1499.93 239.62 1501.3 238.95 1502.88 238.674C1504.46 238.398 1506.13 238.536 1507.57 239.061C1509.01 239.586 1510.1 240.46 1510.65 241.51C1511.26 242.731 1511.89 243.951 1512.51 245.168L1512.77 245.424C1514.27 246.929 1516.11 249.011 1518.02 251.184L1518.03 251.19V251.193L1518.04 251.196L1518.79 252.048C1523.44 257.31 1528.49 262.85 1532.82 265.731C1533.8 266.381 1534.46 267.225 1534.7 268.144C1534.94 269.062 1534.75 270.009 1534.16 270.85C1533.57 271.691 1532.6 272.384 1531.41 272.832C1530.21 273.279 1528.83 273.458 1527.48 273.344C1549.23 312.891 1573.72 352.047 1599.11 391.164C1708.71 388.344 1819.23 389.989 1929.35 391.628H1929.36C1995.87 392.619 2062.23 393.605 2128.15 393.605C2129.88 393.605 2131.54 394.074 2132.77 394.91C2133.99 395.745 2134.67 396.878 2134.67 398.059C2134.67 399.24 2133.99 400.373 2132.77 401.209C2131.54 402.044 2129.88 402.513 2128.15 402.513C2061.61 402.513 1994.96 401.521 1928.32 400.527C1820.25 398.914 1712.24 397.305 1604.81 399.936C1614.18 414.292 1623.64 428.649 1633.12 443.017L1633.14 443.05C1646.49 463.294 1659.86 483.571 1672.99 503.926C1704.25 504.638 1735.48 505.654 1766.67 507.037L1774.23 507.361C1799.21 508.403 1825.68 509.511 1850.05 516.584L1850.08 516.593H1850.08C1851.56 517.023 1853.04 517.451 1854.27 517.881C1855.47 518.303 1857.03 518.923 1858.32 519.9C1861.62 522.406 1860.91 525.367 1860.32 527.154C1859.98 528.167 1859.29 529.592 1857.62 530.726C1855.54 532.134 1852.79 532.538 1850.34 532.178C1848.34 531.887 1846.85 531.154 1845.98 530.661C1845.06 530.134 1844.22 529.552 1843.46 528.921C1842.16 527.838 1840.97 526.699 1839.89 525.512C1839.5 525.095 1839.12 524.675 1838.74 524.253C1838.42 523.894 1838.36 523.844 1838.43 523.909C1838.09 523.585 1837.8 523.23 1837.59 522.855C1817.45 518.119 1795.78 517.201 1773.2 516.245C1770.75 516.141 1768.29 516.037 1765.82 515.927C1736.84 514.652 1707.84 513.667 1678.82 512.973C1734.08 599.219 1784.29 686.815 1809.23 778.717C1821.65 824.521 1822.61 867.561 1803.08 905.051C1783.47 942.71 1743.44 974.291 1675.34 997.359C1496.14 1058.06 1242.77 1074.35 1057.17 1015.03C854.278 950.178 720.011 789.211 822.068 641.721C852.418 597.859 893.353 561.488 941.742 531.371C930.745 527.784 920.173 523.763 910.414 519.749C638.433 521.228 363.331 520.067 93.1058 499.855C89.7848 499.605 85.6813 499.353 81.1171 499.071C68.2894 498.281 51.7755 497.266 38.4436 495.472C29.6063 494.281 20.7951 492.601 15.3181 489.869C12.4621 488.444 9.58014 486.267 9.10633 483.167C8.63687 480.082 10.7582 477.389 13.5402 475.245C20.8951 469.565 30.4235 465.919 39.9563 463.092C44.7379 461.676 49.6499 460.426 54.388 459.238L55.9094 458.858C60.1563 457.795 64.2337 456.777 68.1633 455.672C202.63 417.924 349.256 389.698 493.981 376.669C513.077 374.949 532.273 373.58 551.525 372.586L551.821 370.638C554.081 355.682 556.324 340.844 557.815 326.286C559.176 312.981 560.302 299.562 561.319 286.058C517.037 253.767 469.699 223.546 415.111 200.365C356.728 218.893 297.145 235.572 236.075 247.146L236.019 247.158C234.15 247.511 214.615 251.22 195.006 253.17C185.164 254.15 174.797 254.741 166.503 254.103C162.387 253.788 158.209 253.129 154.784 251.772C151.133 250.326 148.146 247.977 147.49 244.619C145.855 236.252 152.202 229.012 160.904 223.187C169.663 217.325 181.774 212.212 194.228 207.889C213.789 201.101 235.532 195.831 248.668 192.645C252.224 191.784 255.145 191.077 257.232 190.531C286.043 182.983 312.289 177.216 338.475 176.397C363.865 175.595 388.838 179.452 415.92 190.281C452.807 178.47 489.321 165.924 525.614 153.453C541.736 147.913 557.82 142.387 573.869 136.947C579.606 93.9818 588.644 51.3875 604.788 10.2096C605.236 9.06909 606.329 8.0968 607.827 7.50658C609.324 6.91636 611.103 6.75653 612.773 7.06222ZM1052.1 476.662L1052.64 477.122C1026.73 487.084 1001.9 498.144 978.447 510.425C956.991 510.568 935.513 510.705 914.018 510.823C902.529 506.01 892.192 501.227 883.707 497.239C814.474 464.713 757.786 424.319 702.763 381.912C801.033 387.91 896.991 405.761 983.903 439.008C1001.15 445.606 1032.21 460.001 1052.1 476.662ZM1060.3 484.4C1039.71 492.252 1019.78 500.891 1000.62 510.277L1017.24 510.161C1034.6 510.039 1051.98 509.867 1069.38 509.653C1070.26 506.979 1070.47 504.222 1070 501.5C1069.09 495.956 1065.64 490.19 1060.3 484.4ZM936.491 519.6L961.864 519.443C958.673 521.245 955.509 523.074 952.37 524.924C947.001 523.259 941.705 521.483 936.491 519.6ZM982.951 519.304C977.165 522.381 971.468 525.536 965.863 528.767C966.706 528.986 967.554 529.2 968.402 529.411C1001.15 537.559 1032.63 538.797 1055.46 524.633C1058.4 522.835 1061.04 520.824 1063.35 518.635C1048.02 518.814 1032.69 518.962 1017.37 519.069L982.951 519.304ZM833.857 645.527C864.276 601.567 905.641 565.271 954.77 535.344C957.808 536.202 960.869 537.018 963.938 537.781C998 546.253 1035.83 548.845 1064.22 531.225C1070.76 527.166 1075.49 522.881 1078.6 518.445C1136.35 517.694 1194.14 516.515 1251.92 515.34H1251.93C1389.56 512.54 1527.18 509.737 1664.37 512.646C1720.53 600.023 1771.38 688.104 1796.4 780.338C1808.63 825.385 1809.24 866.655 1790.8 902.064C1772.44 937.306 1734.96 967.218 1669.54 989.378C1493.08 1049.16 1243.94 1064.89 1062.69 1006.96C864.128 943.491 735.838 787.183 833.857 645.527ZM1250.79 506.447C1386.59 503.685 1522.83 500.912 1658.54 503.617C1646.27 484.712 1633.9 465.838 1621.44 446.993L1621.42 446.972L1621.41 446.957L1621.4 446.942C1611.14 431.413 1600.93 415.867 1590.78 400.304C1580.13 400.601 1569.5 400.942 1558.86 401.331C1421.07 406.379 1271.62 421.246 1140.66 458.009C1117.16 464.579 1094.17 471.958 1071.76 480.118C1077.63 486.585 1081.81 493.462 1082.96 500.511C1083.46 503.495 1083.38 506.513 1082.7 509.481C1138.6 508.73 1194.64 507.59 1250.75 506.45L1250.78 506.447H1250.79ZM532.247 161.153C545.735 156.518 559.167 151.903 572.543 147.349C568.478 180.8 566.227 214.427 563.992 247.746L563.988 247.784V247.808C563.405 256.472 562.827 265.119 562.219 273.733C521.827 244.815 478.398 217.587 429.117 195.878C463.896 184.643 498.254 172.837 532.247 161.153ZM570.821 326.906C571.904 316.369 572.834 305.789 573.682 295.177C593.282 309.8 612.347 324.745 631.252 339.564L641.002 347.204C645.745 350.916 650.478 354.634 655.216 358.348L655.238 358.369L655.277 358.399C660.846 362.769 666.414 367.14 671.995 371.502C636.307 370.231 600.454 370.442 564.74 371.962C567.009 357.006 569.278 341.999 570.821 326.906ZM543.71 450.814C543.71 427.918 546.753 404.657 550.174 381.589C531.96 382.56 513.781 383.872 495.685 385.499C352.198 398.418 206.66 426.425 73.1188 463.912C68.9458 465.085 64.6162 466.168 60.4041 467.219L58.8827 467.603C54.1446 468.79 49.5455 469.96 45.1508 471.264C36.3266 473.88 28.8195 476.89 23.3077 481.148C22.6556 481.653 22.3426 482.001 22.1948 482.202C22.347 482.312 22.5991 482.47 23.0077 482.672C25.9114 484.121 32.0841 485.537 40.9648 486.731C53.5621 488.426 68.8327 489.367 81.517 490.148H81.5257C86.3246 490.445 90.7541 490.718 94.5229 491C357.297 510.654 624.801 512.251 890.088 510.948C885.471 508.852 880.881 506.729 876.317 504.579C802.063 469.696 742.054 425.941 684.071 380.915C644.006 379.083 603.623 379.172 563.384 380.947C559.889 404.298 556.75 427.541 556.75 450.814C556.75 451.996 556.063 453.128 554.841 453.964C553.618 454.799 551.959 455.268 550.23 455.268C548.501 455.268 546.842 454.799 545.619 453.964C544.397 453.128 543.71 451.996 543.71 450.814ZM401.249 194.931C379.397 187.27 359.323 184.657 339.075 185.293C315.124 186.044 290.551 191.344 261.896 198.848C259.479 199.48 256.258 200.264 252.446 201.187C239.201 204.4 218.809 209.35 200.135 215.832C188.138 219.998 177.397 224.621 170.033 229.55C162.613 234.515 159.57 239.117 160.418 243.44V243.455C160.422 243.523 160.435 243.713 161.33 244.067C162.513 244.536 164.647 244.996 167.964 245.251C174.541 245.759 183.56 245.308 193.124 244.355C211.902 242.487 230.807 238.9 232.541 238.571L232.589 238.562C290.046 227.67 346.091 212.236 401.249 194.931ZM22.0775 482.401C22.0786 482.407 22.0786 482.413 22.0775 482.419V482.401ZM966.228 205.704L964.942 206.443C965.872 200.249 967.432 194.655 969.345 190.32C980.504 165.022 1009.32 145.077 1045.63 134.952L1048.23 134.207C1053.42 132.701 1061.81 130.266 1069.64 129.171C1074.39 128.506 1077.81 128.517 1079.8 128.978C1080.64 129.174 1081.02 129.402 1081.24 129.601C1081.47 129.809 1081.88 130.293 1082 131.374C1082.49 135.629 1079.95 140.35 1074.49 145.514C1069.07 150.644 1061.25 155.763 1052.45 160.66C1043.69 165.538 1034.22 170.055 1025.65 174.039L1020.7 176.329L1020.69 176.332C1014.21 179.325 1008.38 182.021 1004.39 184.176C993.01 190.326 981.542 196.912 969.862 203.619L966.228 205.704ZM750.114 248.625C745.862 251.318 740.82 253.764 736.473 255.608C736.58 255.078 736.75 254.555 736.982 254.043C737.503 252.853 738.373 251.439 739.555 249.907C742.058 246.697 745.199 243.738 748.888 241.115C752.709 238.446 755.686 237.347 757.129 237.208L757.273 237.196C757.46 237.341 757.955 237.796 758.442 238.93C758.79 239.732 758.694 240.928 757.26 242.742C755.817 244.569 753.335 246.579 750.114 248.625ZM1372.61 241.911C1372.6 241.903 1372.59 241.897 1372.58 241.893L1372.58 241.896L1372.59 241.902L1372.61 241.911ZM1254.44 186.849L1245.38 190.094C1249.64 185.496 1254.21 181.036 1259.08 176.729C1259.61 176.263 1261.74 174.897 1265.86 172.641C1270.77 169.982 1275.79 167.41 1280.89 164.927C1294.6 158.224 1308.67 151.867 1323.07 145.87C1338.12 139.622 1352.6 134.281 1363.22 131.519C1367.93 130.293 1371.28 129.741 1373.35 129.64C1373.1 131.107 1372.13 132.915 1370.12 135.094C1367.59 137.835 1363.72 140.834 1358.68 144.008C1348.61 150.35 1334.7 156.895 1320.1 162.955C1296.62 172.703 1272.34 180.83 1260.62 184.752C1257.73 185.72 1255.6 186.43 1254.44 186.849ZM2210.75 398.852C2209.02 398.852 2207.36 399.321 2206.13 400.156C2204.91 400.992 2204.23 402.125 2204.23 403.306C2204.23 404.487 2204.91 405.62 2206.13 406.455C2207.36 407.291 2209.02 407.76 2210.75 407.76H2219.44C2221.17 407.76 2222.83 407.291 2224.05 406.455C2225.27 405.62 2225.96 404.487 2225.96 403.306C2225.96 402.125 2225.27 400.992 2224.05 400.156C2222.83 399.321 2221.17 398.852 2219.44 398.852H2210.75Z" fill="#CC99AC"/>
</svg>
